<svg width="210" height="210" viewBox="0 0 210 210" fill="none" xmlns="http://www.w3.org/2000/svg">
<g opacity="0.5">
<path d="M105.75 104.975L108.611 210H101.389L104.25 104.975H105.75Z" fill="url(#paint0_radial_39_2205)"/>
<path d="M105.738 104.846L126.291 207.901L119.17 209.125L104.262 105.1L105.738 104.846Z" fill="url(#paint1_radial_39_2205)"/>
<path d="M105.706 104.725L143.355 202.796L136.543 205.203L104.294 105.225L105.706 104.725Z" fill="url(#paint2_radial_39_2205)"/>
<path d="M105.654 104.609L159.345 194.904L153.042 198.431L104.346 105.341L105.654 104.609Z" fill="url(#paint3_radial_39_2205)"/>
<path d="M105.585 104.5L173.761 184.398L168.143 188.941L104.418 105.446L105.585 104.5Z" fill="url(#paint4_radial_39_2205)"/>
<path d="M105.495 104.409L186.15 171.646L181.377 177.072L104.505 105.537L105.495 104.409Z" fill="url(#paint5_radial_39_2205)"/>
<path d="M105.394 104.334L196.266 156.975L192.479 163.13L104.606 105.612L105.394 104.334Z" fill="url(#paint6_radial_39_2205)"/>
<path d="M105.28 104.28L203.714 140.801L201.019 147.506L104.72 105.67L105.28 104.28Z" fill="url(#paint7_radial_39_2205)"/>
<path d="M105.159 104.242L208.35 123.544L206.832 130.611L104.841 105.708L105.159 104.242Z" fill="url(#paint8_radial_39_2205)"/>
<path d="M105.032 104.225L210 105.825L209.695 113.046L104.968 105.725L105.032 104.225Z" fill="url(#paint9_radial_39_2205)"/>
<path d="M104.906 104.23L208.62 88.0552L209.537 95.2263L105.094 105.716L104.906 104.23Z" fill="url(#paint10_radial_39_2205)"/>
<path d="M104.78 104.259L204.278 70.7482L206.396 77.661L105.22 105.691L104.78 104.259Z" fill="url(#paint11_radial_39_2205)"/>
<path d="M104.663 104.305L197.1 54.4656L200.353 60.9162L105.337 105.645L104.663 104.305Z" fill="url(#paint12_radial_39_2205)"/>
<path d="M104.554 104.371L187.252 39.6072L191.547 45.4164L105.446 105.575L104.554 104.371Z" fill="url(#paint13_radial_39_2205)"/>
<path d="M104.46 104.454L175.007 26.6269L180.223 31.6283L105.54 105.491L104.46 104.454Z" fill="url(#paint14_radial_39_2205)"/>
<path d="M104.378 104.554L160.787 15.9245L166.771 19.9722L105.622 105.396L104.378 104.554Z" fill="url(#paint15_radial_39_2205)"/>
<path d="M104.316 104.663L144.96 7.7915L151.541 10.769L105.684 105.283L104.316 104.663Z" fill="url(#paint16_radial_39_2205)"/>
<path d="M104.274 104.783L127.948 2.42365L134.938 4.24348L105.726 105.162L104.274 104.783Z" fill="url(#paint17_radial_39_2205)"/>
<path d="M104.252 104.908L110.318 0L117.516 0.61216L105.748 105.037L104.252 104.908Z" fill="url(#paint18_radial_39_2205)"/>
<path d="M104.252 105.037L92.4843 0.61216L99.6821 0L105.748 104.908L104.252 105.037Z" fill="url(#paint19_radial_39_2205)"/>
<path d="M104.274 105.162L75.0619 4.24348L82.0517 2.42365L105.726 104.783L104.274 105.162Z" fill="url(#paint20_radial_39_2205)"/>
<path d="M104.316 105.283L58.4594 10.769L65.0405 7.7915L105.684 104.663L104.316 105.283Z" fill="url(#paint21_radial_39_2205)"/>
<path d="M104.378 105.396L43.229 19.9722L49.2132 15.9245L105.622 104.554L104.378 105.396Z" fill="url(#paint22_radial_39_2205)"/>
<path d="M104.46 105.491L29.7771 31.6283L34.9934 26.6269L105.54 104.454L104.46 105.491Z" fill="url(#paint23_radial_39_2205)"/>
<path d="M104.554 105.575L18.4528 45.4164L22.7477 39.6072L105.446 104.371L104.554 105.575Z" fill="url(#paint24_radial_39_2205)"/>
<path d="M104.663 105.645L9.64746 60.9162L12.8996 54.4656L105.337 104.305L104.663 105.645Z" fill="url(#paint25_radial_39_2205)"/>
<path d="M104.78 105.691L3.60386 77.661L5.7216 70.7482L105.22 104.259L104.78 105.691Z" fill="url(#paint26_radial_39_2205)"/>
<path d="M104.906 105.716L0.463176 95.2263L1.37962 88.0552L105.094 104.23L104.906 105.716Z" fill="url(#paint27_radial_39_2205)"/>
<path d="M105.032 105.725L0.304655 113.046L0 105.825L104.968 104.225L105.032 105.725Z" fill="url(#paint28_radial_39_2205)"/>
<path d="M105.159 105.708L3.16793 130.611L1.64713 123.544L104.841 104.242L105.159 105.708Z" fill="url(#paint29_radial_39_2205)"/>
<path d="M105.28 105.67L8.98117 147.506L6.2888 140.801L104.72 104.28L105.28 105.67Z" fill="url(#paint30_radial_39_2205)"/>
<path d="M105.394 105.612L17.5215 163.13L13.7343 156.975L104.606 104.334L105.394 105.612Z" fill="url(#paint31_radial_39_2205)"/>
<path d="M105.495 105.537L28.6229 177.072L23.8499 171.646L104.505 104.409L105.495 105.537Z" fill="url(#paint32_radial_39_2205)"/>
<path d="M105.585 105.446L41.8568 188.941L36.2393 184.398L104.418 104.5L105.585 105.446Z" fill="url(#paint33_radial_39_2205)"/>
<path d="M105.654 105.341L56.9584 198.431L50.6547 194.904L104.346 104.609L105.654 105.341Z" fill="url(#paint34_radial_39_2205)"/>
<path d="M105.706 105.225L73.4569 205.203L66.6455 202.796L104.294 104.725L105.706 105.225Z" fill="url(#paint35_radial_39_2205)"/>
<path d="M105.738 105.1L90.8298 209.125L83.7087 207.901L104.262 104.846L105.738 105.1Z" fill="url(#paint36_radial_39_2205)"/>
</g>
<circle cx="104.582" cy="104.582" r="53.8924" stroke="#FF9609" stroke-width="6" stroke-dasharray="2 2"/>
<circle cx="104.582" cy="104.582" r="48.5259" fill="#FF9609"/>
<g filter="url(#filter0_di_39_2205)">
<path d="M100.16 121C100 121 99.92 120.92 99.92 120.76L99.968 87.784C99.968 87.656 100.032 87.592 100.16 87.592H105.536C105.664 87.592 105.728 87.656 105.728 87.784L105.776 120.76C105.776 120.92 105.712 121 105.584 121H100.16Z" fill="white"/>
<path d="M99.92 120.76L96.92 120.756V120.76H99.92ZM99.968 87.784L102.968 87.7884V87.784H99.968ZM105.728 87.784H102.728L102.728 87.7884L105.728 87.784ZM105.776 120.76H108.776L108.776 120.756L105.776 120.76ZM100.16 118C100.542 118 101.38 118.098 102.101 118.819C102.822 119.54 102.92 120.378 102.92 120.76H96.92C96.92 121.302 97.0576 122.26 97.8587 123.061C98.6597 123.862 99.6176 124 100.16 124V118ZM102.92 120.764L102.968 87.7884L96.968 87.7796L96.92 120.756L102.92 120.764ZM102.968 87.784C102.968 88.1824 102.866 89.0323 102.137 89.7613C101.408 90.4904 100.558 90.592 100.16 90.592V84.592C99.6336 84.592 98.6877 84.7256 97.8947 85.5187C97.1016 86.3117 96.968 87.2576 96.968 87.784H102.968ZM100.16 90.592H105.536V84.592H100.16V90.592ZM105.536 90.592C105.138 90.592 104.288 90.4904 103.559 89.7613C102.83 89.0323 102.728 88.1824 102.728 87.784H108.728C108.728 87.2576 108.594 86.3117 107.801 85.5187C107.008 84.7256 106.062 84.592 105.536 84.592V90.592ZM102.728 87.7884L102.776 120.764L108.776 120.756L108.728 87.7796L102.728 87.7884ZM102.776 120.76C102.776 120.519 102.811 119.784 103.385 119.066C104.062 118.22 104.986 118 105.584 118V124C106.31 124 107.33 123.74 108.071 122.814C108.709 122.016 108.776 121.161 108.776 120.76H102.776ZM105.584 118H100.16V124H105.584V118Z" fill="#fff"/>
</g>
<defs>
<filter id="filter0_di_39_2205" x="84.92" y="76.592" width="35.856" height="63.408" filterUnits="userSpaceOnUse" color-interpolation-filters="sRGB">
<feFlood flood-opacity="0" result="BackgroundImageFix"/>
<feColorMatrix in="SourceAlpha" type="matrix" values="0 0 0 0 0 0 0 0 0 0 0 0 0 0 0 0 0 0 127 0" result="hardAlpha"/>
<feOffset dy="4"/>
<feGaussianBlur stdDeviation="7.5"/>
<feComposite in2="hardAlpha" operator="out"/>
<feColorMatrix type="matrix" values="0 0 0 0 0 0 0 0 0 0 0 0 0 0 0 0 0 0 0.25 0"/>
<feBlend mode="normal" in2="BackgroundImageFix" result="effect1_dropShadow_39_2205"/>
<feBlend mode="normal" in="SourceGraphic" in2="effect1_dropShadow_39_2205" result="shape"/>
<feColorMatrix in="SourceAlpha" type="matrix" values="0 0 0 0 0 0 0 0 0 0 0 0 0 0 0 0 0 0 127 0" result="hardAlpha"/>
<feOffset dy="-4"/>
<feGaussianBlur stdDeviation="2.5"/>
<feComposite in2="hardAlpha" operator="arithmetic" k2="-1" k3="1"/>
<feColorMatrix type="matrix" values="0 0 0 0 0.984314 0 0 0 0 0.988235 0 0 0 0 0.984314 0 0 0 0.65 0"/>
<feBlend mode="normal" in2="shape" result="effect2_innerShadow_39_2205"/>
</filter>
<radialGradient id="paint0_radial_39_2205" cx="0" cy="0" r="1" gradientUnits="userSpaceOnUse" gradientTransform="translate(105.002 105) scale(105.002 68.6293)">
<stop stop-color="#FF9609"/>
<stop offset="1" stop-color="#FF9609" stop-opacity="0"/>
</radialGradient>
<radialGradient id="paint1_radial_39_2205" cx="0" cy="0" r="1" gradientUnits="userSpaceOnUse" gradientTransform="translate(105.002 105) scale(105.002 68.6293)">
<stop stop-color="#FF9609"/>
<stop offset="1" stop-color="#FF9609" stop-opacity="0"/>
</radialGradient>
<radialGradient id="paint2_radial_39_2205" cx="0" cy="0" r="1" gradientUnits="userSpaceOnUse" gradientTransform="translate(105.002 105) scale(105.002 68.6293)">
<stop stop-color="#FF9609"/>
<stop offset="1" stop-color="#FF9609" stop-opacity="0"/>
</radialGradient>
<radialGradient id="paint3_radial_39_2205" cx="0" cy="0" r="1" gradientUnits="userSpaceOnUse" gradientTransform="translate(105.002 105) scale(105.002 68.6293)">
<stop stop-color="#FF9609"/>
<stop offset="1" stop-color="#FF9609" stop-opacity="0"/>
</radialGradient>
<radialGradient id="paint4_radial_39_2205" cx="0" cy="0" r="1" gradientUnits="userSpaceOnUse" gradientTransform="translate(105.002 105) scale(105.002 68.6293)">
<stop stop-color="#FF9609"/>
<stop offset="1" stop-color="#FF9609" stop-opacity="0"/>
</radialGradient>
<radialGradient id="paint5_radial_39_2205" cx="0" cy="0" r="1" gradientUnits="userSpaceOnUse" gradientTransform="translate(105.002 105) scale(105.002 68.6293)">
<stop stop-color="#FF9609"/>
<stop offset="1" stop-color="#FF9609" stop-opacity="0"/>
</radialGradient>
<radialGradient id="paint6_radial_39_2205" cx="0" cy="0" r="1" gradientUnits="userSpaceOnUse" gradientTransform="translate(105.002 105) scale(105.002 68.6293)">
<stop stop-color="#FF9609"/>
<stop offset="1" stop-color="#FF9609" stop-opacity="0"/>
</radialGradient>
<radialGradient id="paint7_radial_39_2205" cx="0" cy="0" r="1" gradientUnits="userSpaceOnUse" gradientTransform="translate(105.002 105) scale(105.002 68.6293)">
<stop stop-color="#FF9609"/>
<stop offset="1" stop-color="#FF9609" stop-opacity="0"/>
</radialGradient>
<radialGradient id="paint8_radial_39_2205" cx="0" cy="0" r="1" gradientUnits="userSpaceOnUse" gradientTransform="translate(105.002 105) scale(105.002 68.6293)">
<stop stop-color="#FF9609"/>
<stop offset="1" stop-color="#FF9609" stop-opacity="0"/>
</radialGradient>
<radialGradient id="paint9_radial_39_2205" cx="0" cy="0" r="1" gradientUnits="userSpaceOnUse" gradientTransform="translate(105.002 105) scale(105.002 68.6293)">
<stop stop-color="#FF9609"/>
<stop offset="1" stop-color="#FF9609" stop-opacity="0"/>
</radialGradient>
<radialGradient id="paint10_radial_39_2205" cx="0" cy="0" r="1" gradientUnits="userSpaceOnUse" gradientTransform="translate(105.002 105) scale(105.002 68.6293)">
<stop stop-color="#FF9609"/>
<stop offset="1" stop-color="#FF9609" stop-opacity="0"/>
</radialGradient>
<radialGradient id="paint11_radial_39_2205" cx="0" cy="0" r="1" gradientUnits="userSpaceOnUse" gradientTransform="translate(105.002 105) scale(105.002 68.6293)">
<stop stop-color="#FF9609"/>
<stop offset="1" stop-color="#FF9609" stop-opacity="0"/>
</radialGradient>
<radialGradient id="paint12_radial_39_2205" cx="0" cy="0" r="1" gradientUnits="userSpaceOnUse" gradientTransform="translate(105.002 105) scale(105.002 68.6293)">
<stop stop-color="#FF9609"/>
<stop offset="1" stop-color="#FF9609" stop-opacity="0"/>
</radialGradient>
<radialGradient id="paint13_radial_39_2205" cx="0" cy="0" r="1" gradientUnits="userSpaceOnUse" gradientTransform="translate(105.002 105) scale(105.002 68.6293)">
<stop stop-color="#FF9609"/>
<stop offset="1" stop-color="#FF9609" stop-opacity="0"/>
</radialGradient>
<radialGradient id="paint14_radial_39_2205" cx="0" cy="0" r="1" gradientUnits="userSpaceOnUse" gradientTransform="translate(105.002 105) scale(105.002 68.6293)">
<stop stop-color="#FF9609"/>
<stop offset="1" stop-color="#FF9609" stop-opacity="0"/>
</radialGradient>
<radialGradient id="paint15_radial_39_2205" cx="0" cy="0" r="1" gradientUnits="userSpaceOnUse" gradientTransform="translate(105.002 105) scale(105.002 68.6293)">
<stop stop-color="#FF9609"/>
<stop offset="1" stop-color="#FF9609" stop-opacity="0"/>
</radialGradient>
<radialGradient id="paint16_radial_39_2205" cx="0" cy="0" r="1" gradientUnits="userSpaceOnUse" gradientTransform="translate(105.002 105) scale(105.002 68.6293)">
<stop stop-color="#FF9609"/>
<stop offset="1" stop-color="#FF9609" stop-opacity="0"/>
</radialGradient>
<radialGradient id="paint17_radial_39_2205" cx="0" cy="0" r="1" gradientUnits="userSpaceOnUse" gradientTransform="translate(105.002 105) scale(105.002 68.6293)">
<stop stop-color="#FF9609"/>
<stop offset="1" stop-color="#FF9609" stop-opacity="0"/>
</radialGradient>
<radialGradient id="paint18_radial_39_2205" cx="0" cy="0" r="1" gradientUnits="userSpaceOnUse" gradientTransform="translate(105.002 105) scale(105.002 68.6293)">
<stop stop-color="#FF9609"/>
<stop offset="1" stop-color="#FF9609" stop-opacity="0"/>
</radialGradient>
<radialGradient id="paint19_radial_39_2205" cx="0" cy="0" r="1" gradientUnits="userSpaceOnUse" gradientTransform="translate(105.002 105) scale(105.002 68.6293)">
<stop stop-color="#FF9609"/>
<stop offset="1" stop-color="#FF9609" stop-opacity="0"/>
</radialGradient>
<radialGradient id="paint20_radial_39_2205" cx="0" cy="0" r="1" gradientUnits="userSpaceOnUse" gradientTransform="translate(105.002 105) scale(105.002 68.6293)">
<stop stop-color="#FF9609"/>
<stop offset="1" stop-color="#FF9609" stop-opacity="0"/>
</radialGradient>
<radialGradient id="paint21_radial_39_2205" cx="0" cy="0" r="1" gradientUnits="userSpaceOnUse" gradientTransform="translate(105.002 105) scale(105.002 68.6293)">
<stop stop-color="#FF9609"/>
<stop offset="1" stop-color="#FF9609" stop-opacity="0"/>
</radialGradient>
<radialGradient id="paint22_radial_39_2205" cx="0" cy="0" r="1" gradientUnits="userSpaceOnUse" gradientTransform="translate(105.002 105) scale(105.002 68.6293)">
<stop stop-color="#FF9609"/>
<stop offset="1" stop-color="#FF9609" stop-opacity="0"/>
</radialGradient>
<radialGradient id="paint23_radial_39_2205" cx="0" cy="0" r="1" gradientUnits="userSpaceOnUse" gradientTransform="translate(105.002 105) scale(105.002 68.6293)">
<stop stop-color="#FF9609"/>
<stop offset="1" stop-color="#FF9609" stop-opacity="0"/>
</radialGradient>
<radialGradient id="paint24_radial_39_2205" cx="0" cy="0" r="1" gradientUnits="userSpaceOnUse" gradientTransform="translate(105.002 105) scale(105.002 68.6293)">
<stop stop-color="#FF9609"/>
<stop offset="1" stop-color="#FF9609" stop-opacity="0"/>
</radialGradient>
<radialGradient id="paint25_radial_39_2205" cx="0" cy="0" r="1" gradientUnits="userSpaceOnUse" gradientTransform="translate(105.002 105) scale(105.002 68.6293)">
<stop stop-color="#FF9609"/>
<stop offset="1" stop-color="#FF9609" stop-opacity="0"/>
</radialGradient>
<radialGradient id="paint26_radial_39_2205" cx="0" cy="0" r="1" gradientUnits="userSpaceOnUse" gradientTransform="translate(105.002 105) scale(105.002 68.6293)">
<stop stop-color="#FF9609"/>
<stop offset="1" stop-color="#FF9609" stop-opacity="0"/>
</radialGradient>
<radialGradient id="paint27_radial_39_2205" cx="0" cy="0" r="1" gradientUnits="userSpaceOnUse" gradientTransform="translate(105.002 105) scale(105.002 68.6293)">
<stop stop-color="#FF9609"/>
<stop offset="1" stop-color="#FF9609" stop-opacity="0"/>
</radialGradient>
<radialGradient id="paint28_radial_39_2205" cx="0" cy="0" r="1" gradientUnits="userSpaceOnUse" gradientTransform="translate(105.002 105) scale(105.002 68.6293)">
<stop stop-color="#FF9609"/>
<stop offset="1" stop-color="#FF9609" stop-opacity="0"/>
</radialGradient>
<radialGradient id="paint29_radial_39_2205" cx="0" cy="0" r="1" gradientUnits="userSpaceOnUse" gradientTransform="translate(105.002 105) scale(105.002 68.6293)">
<stop stop-color="#FF9609"/>
<stop offset="1" stop-color="#FF9609" stop-opacity="0"/>
</radialGradient>
<radialGradient id="paint30_radial_39_2205" cx="0" cy="0" r="1" gradientUnits="userSpaceOnUse" gradientTransform="translate(105.002 105) scale(105.002 68.6293)">
<stop stop-color="#FF9609"/>
<stop offset="1" stop-color="#FF9609" stop-opacity="0"/>
</radialGradient>
<radialGradient id="paint31_radial_39_2205" cx="0" cy="0" r="1" gradientUnits="userSpaceOnUse" gradientTransform="translate(105.002 105) scale(105.002 68.6293)">
<stop stop-color="#FF9609"/>
<stop offset="1" stop-color="#FF9609" stop-opacity="0"/>
</radialGradient>
<radialGradient id="paint32_radial_39_2205" cx="0" cy="0" r="1" gradientUnits="userSpaceOnUse" gradientTransform="translate(105.002 105) scale(105.002 68.6293)">
<stop stop-color="#FF9609"/>
<stop offset="1" stop-color="#FF9609" stop-opacity="0"/>
</radialGradient>
<radialGradient id="paint33_radial_39_2205" cx="0" cy="0" r="1" gradientUnits="userSpaceOnUse" gradientTransform="translate(105.002 105) scale(105.002 68.6293)">
<stop stop-color="#FF9609"/>
<stop offset="1" stop-color="#FF9609" stop-opacity="0"/>
</radialGradient>
<radialGradient id="paint34_radial_39_2205" cx="0" cy="0" r="1" gradientUnits="userSpaceOnUse" gradientTransform="translate(105.002 105) scale(105.002 68.6293)">
<stop stop-color="#FF9609"/>
<stop offset="1" stop-color="#FF9609" stop-opacity="0"/>
</radialGradient>
<radialGradient id="paint35_radial_39_2205" cx="0" cy="0" r="1" gradientUnits="userSpaceOnUse" gradientTransform="translate(105.002 105) scale(105.002 68.6293)">
<stop stop-color="#FF9609"/>
<stop offset="1" stop-color="#FF9609" stop-opacity="0"/>
</radialGradient>
<radialGradient id="paint36_radial_39_2205" cx="0" cy="0" r="1" gradientUnits="userSpaceOnUse" gradientTransform="translate(105.002 105) scale(105.002 68.6293)">
<stop stop-color="#FF9609"/>
<stop offset="1" stop-color="#FF9609" stop-opacity="0"/>
</radialGradient>
</defs>
</svg>
