<svg width="210" height="210" viewBox="0 0 210 210" fill="none" xmlns="http://www.w3.org/2000/svg">
<g opacity="0.5">
<path d="M105.75 104.975L108.611 210H101.389L104.25 104.975H105.75Z" fill="url(#paint0_radial_39_2194)"/>
<path d="M105.738 104.846L126.291 207.901L119.17 209.125L104.262 105.1L105.738 104.846Z" fill="url(#paint1_radial_39_2194)"/>
<path d="M105.706 104.725L143.355 202.796L136.543 205.203L104.294 105.225L105.706 104.725Z" fill="url(#paint2_radial_39_2194)"/>
<path d="M105.654 104.609L159.345 194.904L153.042 198.431L104.346 105.341L105.654 104.609Z" fill="url(#paint3_radial_39_2194)"/>
<path d="M105.585 104.5L173.761 184.398L168.143 188.941L104.418 105.446L105.585 104.5Z" fill="url(#paint4_radial_39_2194)"/>
<path d="M105.495 104.409L186.15 171.646L181.377 177.072L104.505 105.537L105.495 104.409Z" fill="url(#paint5_radial_39_2194)"/>
<path d="M105.394 104.334L196.266 156.975L192.479 163.13L104.606 105.612L105.394 104.334Z" fill="url(#paint6_radial_39_2194)"/>
<path d="M105.28 104.28L203.714 140.801L201.019 147.506L104.72 105.67L105.28 104.28Z" fill="url(#paint7_radial_39_2194)"/>
<path d="M105.159 104.242L208.35 123.544L206.832 130.611L104.841 105.708L105.159 104.242Z" fill="url(#paint8_radial_39_2194)"/>
<path d="M105.032 104.225L210 105.825L209.695 113.046L104.968 105.725L105.032 104.225Z" fill="url(#paint9_radial_39_2194)"/>
<path d="M104.906 104.23L208.62 88.0552L209.537 95.2262L105.094 105.716L104.906 104.23Z" fill="url(#paint10_radial_39_2194)"/>
<path d="M104.78 104.259L204.278 70.7482L206.396 77.661L105.22 105.691L104.78 104.259Z" fill="url(#paint11_radial_39_2194)"/>
<path d="M104.663 104.305L197.1 54.4656L200.353 60.9162L105.337 105.645L104.663 104.305Z" fill="url(#paint12_radial_39_2194)"/>
<path d="M104.554 104.371L187.252 39.6072L191.547 45.4164L105.446 105.575L104.554 104.371Z" fill="url(#paint13_radial_39_2194)"/>
<path d="M104.46 104.454L175.007 26.6269L180.223 31.6283L105.54 105.491L104.46 104.454Z" fill="url(#paint14_radial_39_2194)"/>
<path d="M104.378 104.554L160.787 15.9245L166.771 19.9722L105.622 105.396L104.378 104.554Z" fill="url(#paint15_radial_39_2194)"/>
<path d="M104.316 104.663L144.96 7.7915L151.541 10.769L105.684 105.283L104.316 104.663Z" fill="url(#paint16_radial_39_2194)"/>
<path d="M104.274 104.783L127.948 2.42365L134.938 4.24348L105.726 105.162L104.274 104.783Z" fill="url(#paint17_radial_39_2194)"/>
<path d="M104.252 104.908L110.318 0L117.516 0.61216L105.748 105.037L104.252 104.908Z" fill="url(#paint18_radial_39_2194)"/>
<path d="M104.252 105.037L92.4843 0.61216L99.6821 0L105.748 104.908L104.252 105.037Z" fill="url(#paint19_radial_39_2194)"/>
<path d="M104.274 105.162L75.0619 4.24348L82.0517 2.42365L105.726 104.783L104.274 105.162Z" fill="url(#paint20_radial_39_2194)"/>
<path d="M104.316 105.283L58.4594 10.769L65.0405 7.7915L105.684 104.663L104.316 105.283Z" fill="url(#paint21_radial_39_2194)"/>
<path d="M104.378 105.396L43.229 19.9722L49.2132 15.9245L105.622 104.554L104.378 105.396Z" fill="url(#paint22_radial_39_2194)"/>
<path d="M104.46 105.491L29.7771 31.6283L34.9934 26.6269L105.54 104.454L104.46 105.491Z" fill="url(#paint23_radial_39_2194)"/>
<path d="M104.554 105.575L18.4528 45.4164L22.7477 39.6072L105.446 104.371L104.554 105.575Z" fill="url(#paint24_radial_39_2194)"/>
<path d="M104.663 105.645L9.64746 60.9162L12.8996 54.4656L105.337 104.305L104.663 105.645Z" fill="url(#paint25_radial_39_2194)"/>
<path d="M104.78 105.691L3.60386 77.661L5.7216 70.7482L105.22 104.259L104.78 105.691Z" fill="url(#paint26_radial_39_2194)"/>
<path d="M104.906 105.716L0.463176 95.2262L1.37962 88.0552L105.094 104.23L104.906 105.716Z" fill="url(#paint27_radial_39_2194)"/>
<path d="M105.032 105.725L0.304655 113.046L0 105.825L104.968 104.225L105.032 105.725Z" fill="url(#paint28_radial_39_2194)"/>
<path d="M105.159 105.708L3.16793 130.611L1.64713 123.544L104.841 104.242L105.159 105.708Z" fill="url(#paint29_radial_39_2194)"/>
<path d="M105.28 105.67L8.98117 147.506L6.2888 140.801L104.72 104.28L105.28 105.67Z" fill="url(#paint30_radial_39_2194)"/>
<path d="M105.394 105.612L17.5215 163.13L13.7343 156.975L104.606 104.334L105.394 105.612Z" fill="url(#paint31_radial_39_2194)"/>
<path d="M105.495 105.537L28.6229 177.072L23.8499 171.646L104.505 104.409L105.495 105.537Z" fill="url(#paint32_radial_39_2194)"/>
<path d="M105.585 105.446L41.8568 188.941L36.2393 184.398L104.418 104.5L105.585 105.446Z" fill="url(#paint33_radial_39_2194)"/>
<path d="M105.654 105.341L56.9584 198.431L50.6547 194.904L104.346 104.609L105.654 105.341Z" fill="url(#paint34_radial_39_2194)"/>
<path d="M105.706 105.225L73.4569 205.203L66.6455 202.796L104.294 104.725L105.706 105.225Z" fill="url(#paint35_radial_39_2194)"/>
<path d="M105.738 105.1L90.8298 209.125L83.7087 207.901L104.262 104.846L105.738 105.1Z" fill="url(#paint36_radial_39_2194)"/>
</g>
<circle cx="104.582" cy="104.582" r="53.8924" stroke="#FF9609" stroke-width="6" stroke-dasharray="2 2"/>
<circle cx="104.526" cy="104.526" r="48.5259" fill="#FF9609"/>
<g filter="url(#filter0_di_39_2194)">
<path d="M95.248 121C95.088 121 95.008 120.92 95.008 120.76V115.336C95.008 115.272 95.04 115.208 95.104 115.144L106.96 98.872C107.184 98.584 107.36 98.216 107.488 97.768C107.648 97.288 107.728 96.872 107.728 96.52C107.728 95.592 107.392 94.744 106.72 93.976C106.048 93.176 105.2 92.776 104.176 92.776C103.184 92.776 102.336 93.16 101.632 93.928C100.96 94.664 100.624 95.608 100.624 96.76V99.112C100.624 99.272 100.544 99.352 100.384 99.352H95.008C94.88 99.352 94.816 99.272 94.816 99.112V96.76C94.816 94.968 95.248 93.336 96.112 91.864C97.008 90.392 98.16 89.224 99.568 88.36C101.008 87.496 102.544 87.064 104.176 87.064C105.904 87.064 107.472 87.512 108.88 88.408C110.288 89.272 111.408 90.424 112.24 91.864C113.104 93.304 113.536 94.856 113.536 96.52C113.536 97.576 113.344 98.648 112.96 99.736C112.608 100.824 112.112 101.784 111.472 102.616L102.352 115.144H113.152C113.28 115.144 113.344 115.208 113.344 115.336V120.76C113.344 120.92 113.28 121 113.152 121H95.248Z" fill="white"/>
<path d="M95.104 115.144L97.2253 117.265L97.3908 117.1L97.5287 116.911L95.104 115.144ZM106.96 98.872L104.592 97.0302L104.563 97.0673L104.535 97.1054L106.96 98.872ZM107.488 97.768L104.642 96.8193L104.621 96.8812L104.603 96.9438L107.488 97.768ZM106.72 93.976L104.423 95.9056L104.442 95.9287L104.462 95.9515L106.72 93.976ZM101.632 93.928L99.4205 91.9008L99.4165 91.9052L101.632 93.928ZM96.112 91.864L93.5494 90.3042L93.5369 90.3247L93.5248 90.3454L96.112 91.864ZM99.568 88.36L98.0245 85.7875L98.0117 85.7952L97.999 85.803L99.568 88.36ZM108.88 88.408L107.269 90.939L107.29 90.9521L107.311 90.965L108.88 88.408ZM112.24 91.864L109.642 93.3648L109.655 93.3863L109.668 93.4075L112.24 91.864ZM112.96 99.736L110.131 98.7375L110.118 98.7749L110.106 98.8125L112.96 99.736ZM111.472 102.616L109.094 100.787L109.07 100.818L109.047 100.85L111.472 102.616ZM102.352 115.144L99.9266 113.378L96.4574 118.144H102.352V115.144ZM95.248 118C95.6304 118 96.4683 118.098 97.1893 118.819C97.9104 119.54 98.008 120.378 98.008 120.76H92.008C92.008 121.302 92.1456 122.26 92.9467 123.061C93.7477 123.862 94.7056 124 95.248 124V118ZM98.008 120.76V115.336H92.008V120.76H98.008ZM98.008 115.336C98.008 116.348 97.4883 117.002 97.2253 117.265L92.9827 113.023C92.5917 113.414 92.008 114.196 92.008 115.336H98.008ZM97.5287 116.911L109.385 100.639L104.535 97.1054L92.6793 113.377L97.5287 116.911ZM109.328 100.714C109.843 100.052 110.167 99.3114 110.373 98.5922L104.603 96.9438C104.579 97.0287 104.56 97.0726 104.554 97.0856C104.548 97.098 104.557 97.0746 104.592 97.0302L109.328 100.714ZM110.334 98.7167C110.555 98.0527 110.728 97.3018 110.728 96.52H104.728C104.728 96.4721 104.733 96.4718 104.722 96.5295C104.711 96.586 104.688 96.6812 104.642 96.8193L110.334 98.7167ZM110.728 96.52C110.728 94.7909 110.077 93.2566 108.978 92.0005L104.462 95.9515C104.707 96.2313 104.728 96.3931 104.728 96.52H110.728ZM109.017 92.0464C107.788 90.5837 106.107 89.776 104.176 89.776V95.776C104.236 95.776 104.27 95.7817 104.284 95.7848C104.292 95.7864 104.296 95.7877 104.297 95.7882C104.299 95.7888 104.3 95.7891 104.3 95.7893C104.301 95.7895 104.302 95.7903 104.305 95.7923C104.309 95.7944 104.315 95.7985 104.324 95.8056C104.342 95.8197 104.376 95.8496 104.423 95.9056L109.017 92.0464ZM104.176 89.776C102.297 89.776 100.661 90.5481 99.4205 91.9008L103.843 95.9552C103.954 95.8341 104.02 95.803 104.034 95.7969C104.044 95.7923 104.078 95.776 104.176 95.776V89.776ZM99.4165 91.9052C98.1617 93.2796 97.624 94.9841 97.624 96.76H103.624C103.624 96.2319 103.758 96.0484 103.847 95.9508L99.4165 91.9052ZM97.624 96.76V99.112H103.624V96.76H97.624ZM97.624 99.112C97.624 98.7296 97.7216 97.8917 98.4427 97.1707C99.1637 96.4496 100.002 96.352 100.384 96.352V102.352C100.926 102.352 101.884 102.214 102.685 101.413C103.486 100.612 103.624 99.6544 103.624 99.112H97.624ZM100.384 96.352H95.008V102.352H100.384V96.352ZM95.008 96.352C95.6061 96.352 96.5299 96.5721 97.2066 97.4179C97.781 98.1359 97.816 98.8715 97.816 99.112H91.816C91.816 99.5125 91.883 100.368 92.5214 101.166C93.2621 102.092 94.2819 102.352 95.008 102.352V96.352ZM97.816 99.112V96.76H91.816V99.112H97.816ZM97.816 96.76C97.816 95.4742 98.1192 94.3708 98.6992 93.3826L93.5248 90.3454C92.3768 92.3012 91.816 94.4618 91.816 96.76H97.816ZM98.6746 93.4238C99.3342 92.3402 100.152 91.5212 101.137 90.917L97.999 85.803C96.1677 86.9268 94.6818 88.4438 93.5494 90.3042L98.6746 93.4238ZM101.111 90.9325C102.099 90.3397 103.104 90.064 104.176 90.064V84.064C101.984 84.064 99.9166 84.6523 98.0245 85.7875L101.111 90.9325ZM104.176 90.064C105.355 90.064 106.36 90.3605 107.269 90.939L110.491 85.877C108.584 84.6635 106.453 84.064 104.176 84.064V90.064ZM107.311 90.965C108.291 91.5661 109.058 92.3539 109.642 93.3648L114.838 90.3632C113.758 88.4941 112.285 86.9779 110.449 85.851L107.311 90.965ZM109.668 93.4075C110.254 94.3858 110.536 95.405 110.536 96.52H116.536C116.536 94.307 115.954 92.2222 114.812 90.3205L109.668 93.4075ZM110.536 96.52C110.536 97.2058 110.412 97.9406 110.131 98.7375L115.789 100.734C116.276 99.3554 116.536 97.9462 116.536 96.52H110.536ZM110.106 98.8125C109.85 99.6028 109.507 100.251 109.094 100.787L113.85 104.445C114.717 103.317 115.366 102.045 115.814 100.659L110.106 98.8125ZM109.047 100.85L99.9266 113.378L104.777 116.91L113.897 104.382L109.047 100.85ZM102.352 118.144H113.152V112.144H102.352V118.144ZM113.152 118.144C112.754 118.144 111.904 118.042 111.175 117.313C110.446 116.584 110.344 115.734 110.344 115.336H116.344C116.344 114.81 116.21 113.864 115.417 113.071C114.624 112.278 113.678 112.144 113.152 112.144V118.144ZM110.344 115.336V120.76H116.344V115.336H110.344ZM110.344 120.76C110.344 120.519 110.379 119.784 110.953 119.066C111.63 118.22 112.554 118 113.152 118V124C113.878 124 114.898 123.74 115.639 122.814C116.277 122.016 116.344 121.161 116.344 120.76H110.344ZM113.152 118H95.248V124H113.152V118Z" fill="#fff"/>
</g>
<defs>
<filter id="filter0_di_39_2194" x="79.816" y="76.064" width="48.72" height="63.936" filterUnits="userSpaceOnUse" color-interpolation-filters="sRGB">
<feFlood flood-opacity="0" result="BackgroundImageFix"/>
<feColorMatrix in="SourceAlpha" type="matrix" values="0 0 0 0 0 0 0 0 0 0 0 0 0 0 0 0 0 0 127 0" result="hardAlpha"/>
<feOffset dy="4"/>
<feGaussianBlur stdDeviation="7.5"/>
<feComposite in2="hardAlpha" operator="out"/>
<feColorMatrix type="matrix" values="0 0 0 0 0 0 0 0 0 0 0 0 0 0 0 0 0 0 0.25 0"/>
<feBlend mode="normal" in2="BackgroundImageFix" result="effect1_dropShadow_39_2194"/>
<feBlend mode="normal" in="SourceGraphic" in2="effect1_dropShadow_39_2194" result="shape"/>
<feColorMatrix in="SourceAlpha" type="matrix" values="0 0 0 0 0 0 0 0 0 0 0 0 0 0 0 0 0 0 127 0" result="hardAlpha"/>
<feOffset dy="-4"/>
<feGaussianBlur stdDeviation="2.5"/>
<feComposite in2="hardAlpha" operator="arithmetic" k2="-1" k3="1"/>
<feColorMatrix type="matrix" values="0 0 0 0 0.984314 0 0 0 0 0.988235 0 0 0 0 0.984314 0 0 0 0.65 0"/>
<feBlend mode="normal" in2="shape" result="effect2_innerShadow_39_2194"/>
</filter>
<radialGradient id="paint0_radial_39_2194" cx="0" cy="0" r="1" gradientUnits="userSpaceOnUse" gradientTransform="translate(105.002 105) scale(105.002 68.6293)">
<stop stop-color="#FF9609"/>
<stop offset="1" stop-color="#FF9609" stop-opacity="0"/>
</radialGradient>
<radialGradient id="paint1_radial_39_2194" cx="0" cy="0" r="1" gradientUnits="userSpaceOnUse" gradientTransform="translate(105.002 105) scale(105.002 68.6293)">
<stop stop-color="#FF9609"/>
<stop offset="1" stop-color="#FF9609" stop-opacity="0"/>
</radialGradient>
<radialGradient id="paint2_radial_39_2194" cx="0" cy="0" r="1" gradientUnits="userSpaceOnUse" gradientTransform="translate(105.002 105) scale(105.002 68.6293)">
<stop stop-color="#FF9609"/>
<stop offset="1" stop-color="#FF9609" stop-opacity="0"/>
</radialGradient>
<radialGradient id="paint3_radial_39_2194" cx="0" cy="0" r="1" gradientUnits="userSpaceOnUse" gradientTransform="translate(105.002 105) scale(105.002 68.6293)">
<stop stop-color="#FF9609"/>
<stop offset="1" stop-color="#FF9609" stop-opacity="0"/>
</radialGradient>
<radialGradient id="paint4_radial_39_2194" cx="0" cy="0" r="1" gradientUnits="userSpaceOnUse" gradientTransform="translate(105.002 105) scale(105.002 68.6293)">
<stop stop-color="#FF9609"/>
<stop offset="1" stop-color="#FF9609" stop-opacity="0"/>
</radialGradient>
<radialGradient id="paint5_radial_39_2194" cx="0" cy="0" r="1" gradientUnits="userSpaceOnUse" gradientTransform="translate(105.002 105) scale(105.002 68.6293)">
<stop stop-color="#FF9609"/>
<stop offset="1" stop-color="#FF9609" stop-opacity="0"/>
</radialGradient>
<radialGradient id="paint6_radial_39_2194" cx="0" cy="0" r="1" gradientUnits="userSpaceOnUse" gradientTransform="translate(105.002 105) scale(105.002 68.6293)">
<stop stop-color="#FF9609"/>
<stop offset="1" stop-color="#FF9609" stop-opacity="0"/>
</radialGradient>
<radialGradient id="paint7_radial_39_2194" cx="0" cy="0" r="1" gradientUnits="userSpaceOnUse" gradientTransform="translate(105.002 105) scale(105.002 68.6293)">
<stop stop-color="#FF9609"/>
<stop offset="1" stop-color="#FF9609" stop-opacity="0"/>
</radialGradient>
<radialGradient id="paint8_radial_39_2194" cx="0" cy="0" r="1" gradientUnits="userSpaceOnUse" gradientTransform="translate(105.002 105) scale(105.002 68.6293)">
<stop stop-color="#FF9609"/>
<stop offset="1" stop-color="#FF9609" stop-opacity="0"/>
</radialGradient>
<radialGradient id="paint9_radial_39_2194" cx="0" cy="0" r="1" gradientUnits="userSpaceOnUse" gradientTransform="translate(105.002 105) scale(105.002 68.6293)">
<stop stop-color="#FF9609"/>
<stop offset="1" stop-color="#FF9609" stop-opacity="0"/>
</radialGradient>
<radialGradient id="paint10_radial_39_2194" cx="0" cy="0" r="1" gradientUnits="userSpaceOnUse" gradientTransform="translate(105.002 105) scale(105.002 68.6293)">
<stop stop-color="#FF9609"/>
<stop offset="1" stop-color="#FF9609" stop-opacity="0"/>
</radialGradient>
<radialGradient id="paint11_radial_39_2194" cx="0" cy="0" r="1" gradientUnits="userSpaceOnUse" gradientTransform="translate(105.002 105) scale(105.002 68.6293)">
<stop stop-color="#FF9609"/>
<stop offset="1" stop-color="#FF9609" stop-opacity="0"/>
</radialGradient>
<radialGradient id="paint12_radial_39_2194" cx="0" cy="0" r="1" gradientUnits="userSpaceOnUse" gradientTransform="translate(105.002 105) scale(105.002 68.6293)">
<stop stop-color="#FF9609"/>
<stop offset="1" stop-color="#FF9609" stop-opacity="0"/>
</radialGradient>
<radialGradient id="paint13_radial_39_2194" cx="0" cy="0" r="1" gradientUnits="userSpaceOnUse" gradientTransform="translate(105.002 105) scale(105.002 68.6293)">
<stop stop-color="#FF9609"/>
<stop offset="1" stop-color="#FF9609" stop-opacity="0"/>
</radialGradient>
<radialGradient id="paint14_radial_39_2194" cx="0" cy="0" r="1" gradientUnits="userSpaceOnUse" gradientTransform="translate(105.002 105) scale(105.002 68.6293)">
<stop stop-color="#FF9609"/>
<stop offset="1" stop-color="#FF9609" stop-opacity="0"/>
</radialGradient>
<radialGradient id="paint15_radial_39_2194" cx="0" cy="0" r="1" gradientUnits="userSpaceOnUse" gradientTransform="translate(105.002 105) scale(105.002 68.6293)">
<stop stop-color="#FF9609"/>
<stop offset="1" stop-color="#FF9609" stop-opacity="0"/>
</radialGradient>
<radialGradient id="paint16_radial_39_2194" cx="0" cy="0" r="1" gradientUnits="userSpaceOnUse" gradientTransform="translate(105.002 105) scale(105.002 68.6293)">
<stop stop-color="#FF9609"/>
<stop offset="1" stop-color="#FF9609" stop-opacity="0"/>
</radialGradient>
<radialGradient id="paint17_radial_39_2194" cx="0" cy="0" r="1" gradientUnits="userSpaceOnUse" gradientTransform="translate(105.002 105) scale(105.002 68.6293)">
<stop stop-color="#FF9609"/>
<stop offset="1" stop-color="#FF9609" stop-opacity="0"/>
</radialGradient>
<radialGradient id="paint18_radial_39_2194" cx="0" cy="0" r="1" gradientUnits="userSpaceOnUse" gradientTransform="translate(105.002 105) scale(105.002 68.6293)">
<stop stop-color="#FF9609"/>
<stop offset="1" stop-color="#FF9609" stop-opacity="0"/>
</radialGradient>
<radialGradient id="paint19_radial_39_2194" cx="0" cy="0" r="1" gradientUnits="userSpaceOnUse" gradientTransform="translate(105.002 105) scale(105.002 68.6293)">
<stop stop-color="#FF9609"/>
<stop offset="1" stop-color="#FF9609" stop-opacity="0"/>
</radialGradient>
<radialGradient id="paint20_radial_39_2194" cx="0" cy="0" r="1" gradientUnits="userSpaceOnUse" gradientTransform="translate(105.002 105) scale(105.002 68.6293)">
<stop stop-color="#FF9609"/>
<stop offset="1" stop-color="#FF9609" stop-opacity="0"/>
</radialGradient>
<radialGradient id="paint21_radial_39_2194" cx="0" cy="0" r="1" gradientUnits="userSpaceOnUse" gradientTransform="translate(105.002 105) scale(105.002 68.6293)">
<stop stop-color="#FF9609"/>
<stop offset="1" stop-color="#FF9609" stop-opacity="0"/>
</radialGradient>
<radialGradient id="paint22_radial_39_2194" cx="0" cy="0" r="1" gradientUnits="userSpaceOnUse" gradientTransform="translate(105.002 105) scale(105.002 68.6293)">
<stop stop-color="#FF9609"/>
<stop offset="1" stop-color="#FF9609" stop-opacity="0"/>
</radialGradient>
<radialGradient id="paint23_radial_39_2194" cx="0" cy="0" r="1" gradientUnits="userSpaceOnUse" gradientTransform="translate(105.002 105) scale(105.002 68.6293)">
<stop stop-color="#FF9609"/>
<stop offset="1" stop-color="#FF9609" stop-opacity="0"/>
</radialGradient>
<radialGradient id="paint24_radial_39_2194" cx="0" cy="0" r="1" gradientUnits="userSpaceOnUse" gradientTransform="translate(105.002 105) scale(105.002 68.6293)">
<stop stop-color="#FF9609"/>
<stop offset="1" stop-color="#FF9609" stop-opacity="0"/>
</radialGradient>
<radialGradient id="paint25_radial_39_2194" cx="0" cy="0" r="1" gradientUnits="userSpaceOnUse" gradientTransform="translate(105.002 105) scale(105.002 68.6293)">
<stop stop-color="#FF9609"/>
<stop offset="1" stop-color="#FF9609" stop-opacity="0"/>
</radialGradient>
<radialGradient id="paint26_radial_39_2194" cx="0" cy="0" r="1" gradientUnits="userSpaceOnUse" gradientTransform="translate(105.002 105) scale(105.002 68.6293)">
<stop stop-color="#FF9609"/>
<stop offset="1" stop-color="#FF9609" stop-opacity="0"/>
</radialGradient>
<radialGradient id="paint27_radial_39_2194" cx="0" cy="0" r="1" gradientUnits="userSpaceOnUse" gradientTransform="translate(105.002 105) scale(105.002 68.6293)">
<stop stop-color="#FF9609"/>
<stop offset="1" stop-color="#FF9609" stop-opacity="0"/>
</radialGradient>
<radialGradient id="paint28_radial_39_2194" cx="0" cy="0" r="1" gradientUnits="userSpaceOnUse" gradientTransform="translate(105.002 105) scale(105.002 68.6293)">
<stop stop-color="#FF9609"/>
<stop offset="1" stop-color="#FF9609" stop-opacity="0"/>
</radialGradient>
<radialGradient id="paint29_radial_39_2194" cx="0" cy="0" r="1" gradientUnits="userSpaceOnUse" gradientTransform="translate(105.002 105) scale(105.002 68.6293)">
<stop stop-color="#FF9609"/>
<stop offset="1" stop-color="#FF9609" stop-opacity="0"/>
</radialGradient>
<radialGradient id="paint30_radial_39_2194" cx="0" cy="0" r="1" gradientUnits="userSpaceOnUse" gradientTransform="translate(105.002 105) scale(105.002 68.6293)">
<stop stop-color="#FF9609"/>
<stop offset="1" stop-color="#FF9609" stop-opacity="0"/>
</radialGradient>
<radialGradient id="paint31_radial_39_2194" cx="0" cy="0" r="1" gradientUnits="userSpaceOnUse" gradientTransform="translate(105.002 105) scale(105.002 68.6293)">
<stop stop-color="#FF9609"/>
<stop offset="1" stop-color="#FF9609" stop-opacity="0"/>
</radialGradient>
<radialGradient id="paint32_radial_39_2194" cx="0" cy="0" r="1" gradientUnits="userSpaceOnUse" gradientTransform="translate(105.002 105) scale(105.002 68.6293)">
<stop stop-color="#FF9609"/>
<stop offset="1" stop-color="#FF9609" stop-opacity="0"/>
</radialGradient>
<radialGradient id="paint33_radial_39_2194" cx="0" cy="0" r="1" gradientUnits="userSpaceOnUse" gradientTransform="translate(105.002 105) scale(105.002 68.6293)">
<stop stop-color="#FF9609"/>
<stop offset="1" stop-color="#FF9609" stop-opacity="0"/>
</radialGradient>
<radialGradient id="paint34_radial_39_2194" cx="0" cy="0" r="1" gradientUnits="userSpaceOnUse" gradientTransform="translate(105.002 105) scale(105.002 68.6293)">
<stop stop-color="#FF9609"/>
<stop offset="1" stop-color="#FF9609" stop-opacity="0"/>
</radialGradient>
<radialGradient id="paint35_radial_39_2194" cx="0" cy="0" r="1" gradientUnits="userSpaceOnUse" gradientTransform="translate(105.002 105) scale(105.002 68.6293)">
<stop stop-color="#FF9609"/>
<stop offset="1" stop-color="#FF9609" stop-opacity="0"/>
</radialGradient>
<radialGradient id="paint36_radial_39_2194" cx="0" cy="0" r="1" gradientUnits="userSpaceOnUse" gradientTransform="translate(105.002 105) scale(105.002 68.6293)">
<stop stop-color="#FF9609"/>
<stop offset="1" stop-color="#FF9609" stop-opacity="0"/>
</radialGradient>
</defs>
</svg>
