<svg width="210" height="210" viewBox="0 0 210 210" fill="none" xmlns="http://www.w3.org/2000/svg">
<g opacity="0.5">
<path d="M105.75 104.975L108.611 210H101.389L104.25 104.975H105.75Z" fill="url(#paint0_radial_39_2183)"/>
<path d="M105.738 104.846L126.291 207.901L119.17 209.125L104.262 105.1L105.738 104.846Z" fill="url(#paint1_radial_39_2183)"/>
<path d="M105.706 104.725L143.355 202.796L136.543 205.203L104.294 105.225L105.706 104.725Z" fill="url(#paint2_radial_39_2183)"/>
<path d="M105.654 104.609L159.345 194.904L153.042 198.431L104.346 105.341L105.654 104.609Z" fill="url(#paint3_radial_39_2183)"/>
<path d="M105.585 104.5L173.761 184.398L168.143 188.941L104.418 105.446L105.585 104.5Z" fill="url(#paint4_radial_39_2183)"/>
<path d="M105.495 104.409L186.15 171.646L181.377 177.072L104.505 105.537L105.495 104.409Z" fill="url(#paint5_radial_39_2183)"/>
<path d="M105.394 104.334L196.266 156.975L192.479 163.13L104.606 105.612L105.394 104.334Z" fill="url(#paint6_radial_39_2183)"/>
<path d="M105.28 104.28L203.714 140.801L201.019 147.506L104.72 105.67L105.28 104.28Z" fill="url(#paint7_radial_39_2183)"/>
<path d="M105.159 104.242L208.35 123.544L206.832 130.611L104.841 105.708L105.159 104.242Z" fill="url(#paint8_radial_39_2183)"/>
<path d="M105.032 104.225L210 105.825L209.695 113.046L104.968 105.725L105.032 104.225Z" fill="url(#paint9_radial_39_2183)"/>
<path d="M104.906 104.23L208.62 88.0552L209.537 95.2262L105.094 105.716L104.906 104.23Z" fill="url(#paint10_radial_39_2183)"/>
<path d="M104.78 104.259L204.278 70.7482L206.396 77.661L105.22 105.691L104.78 104.259Z" fill="url(#paint11_radial_39_2183)"/>
<path d="M104.663 104.305L197.1 54.4656L200.353 60.9162L105.337 105.645L104.663 104.305Z" fill="url(#paint12_radial_39_2183)"/>
<path d="M104.554 104.371L187.252 39.6072L191.547 45.4164L105.446 105.575L104.554 104.371Z" fill="url(#paint13_radial_39_2183)"/>
<path d="M104.46 104.454L175.007 26.6269L180.223 31.6283L105.54 105.491L104.46 104.454Z" fill="url(#paint14_radial_39_2183)"/>
<path d="M104.378 104.554L160.787 15.9245L166.771 19.9722L105.622 105.396L104.378 104.554Z" fill="url(#paint15_radial_39_2183)"/>
<path d="M104.316 104.663L144.96 7.7915L151.541 10.769L105.684 105.283L104.316 104.663Z" fill="url(#paint16_radial_39_2183)"/>
<path d="M104.274 104.783L127.948 2.42365L134.938 4.24348L105.726 105.162L104.274 104.783Z" fill="url(#paint17_radial_39_2183)"/>
<path d="M104.252 104.908L110.318 0L117.516 0.61216L105.748 105.037L104.252 104.908Z" fill="url(#paint18_radial_39_2183)"/>
<path d="M104.252 105.037L92.4843 0.61216L99.6821 0L105.748 104.908L104.252 105.037Z" fill="url(#paint19_radial_39_2183)"/>
<path d="M104.274 105.162L75.0619 4.24348L82.0517 2.42365L105.726 104.783L104.274 105.162Z" fill="url(#paint20_radial_39_2183)"/>
<path d="M104.316 105.283L58.4594 10.769L65.0405 7.7915L105.684 104.663L104.316 105.283Z" fill="url(#paint21_radial_39_2183)"/>
<path d="M104.378 105.396L43.229 19.9722L49.2132 15.9245L105.622 104.554L104.378 105.396Z" fill="url(#paint22_radial_39_2183)"/>
<path d="M104.46 105.491L29.7771 31.6283L34.9934 26.6269L105.54 104.454L104.46 105.491Z" fill="url(#paint23_radial_39_2183)"/>
<path d="M104.554 105.575L18.4528 45.4164L22.7477 39.6072L105.446 104.371L104.554 105.575Z" fill="url(#paint24_radial_39_2183)"/>
<path d="M104.663 105.645L9.64746 60.9162L12.8996 54.4656L105.337 104.305L104.663 105.645Z" fill="url(#paint25_radial_39_2183)"/>
<path d="M104.78 105.691L3.60386 77.661L5.7216 70.7482L105.22 104.259L104.78 105.691Z" fill="url(#paint26_radial_39_2183)"/>
<path d="M104.906 105.716L0.463176 95.2262L1.37962 88.0552L105.094 104.23L104.906 105.716Z" fill="url(#paint27_radial_39_2183)"/>
<path d="M105.032 105.725L0.304655 113.046L0 105.825L104.968 104.225L105.032 105.725Z" fill="url(#paint28_radial_39_2183)"/>
<path d="M105.159 105.708L3.16793 130.611L1.64713 123.544L104.841 104.242L105.159 105.708Z" fill="url(#paint29_radial_39_2183)"/>
<path d="M105.28 105.67L8.98117 147.506L6.2888 140.801L104.72 104.28L105.28 105.67Z" fill="url(#paint30_radial_39_2183)"/>
<path d="M105.394 105.612L17.5215 163.13L13.7343 156.975L104.606 104.334L105.394 105.612Z" fill="url(#paint31_radial_39_2183)"/>
<path d="M105.495 105.537L28.6229 177.072L23.8499 171.646L104.505 104.409L105.495 105.537Z" fill="url(#paint32_radial_39_2183)"/>
<path d="M105.585 105.446L41.8568 188.941L36.2393 184.398L104.418 104.5L105.585 105.446Z" fill="url(#paint33_radial_39_2183)"/>
<path d="M105.654 105.341L56.9584 198.431L50.6547 194.904L104.346 104.609L105.654 105.341Z" fill="url(#paint34_radial_39_2183)"/>
<path d="M105.706 105.225L73.4569 205.203L66.6455 202.796L104.294 104.725L105.706 105.225Z" fill="url(#paint35_radial_39_2183)"/>
<path d="M105.738 105.1L90.8298 209.125L83.7087 207.901L104.262 104.846L105.738 105.1Z" fill="url(#paint36_radial_39_2183)"/>
</g>
<circle cx="104.582" cy="104.582" r="53.8924" stroke="#FF9609" stroke-width="6" stroke-dasharray="2 2"/>
<circle cx="104.582" cy="104.582" r="48.5259" fill="#FF9609"/>
<g filter="url(#filter0_di_39_2183)">
<path d="M105.176 121.528C103.48 121.528 101.912 121.096 100.472 120.232C99.064 119.336 97.928 118.152 97.064 116.68C96.232 115.208 95.816 113.592 95.816 111.832V109.672C95.816 109.512 95.88 109.432 96.008 109.432H101.384C101.544 109.432 101.624 109.512 101.624 109.672V111.832C101.624 112.888 101.96 113.8 102.632 114.568C103.304 115.304 104.152 115.672 105.176 115.672C106.296 115.672 107.176 115.288 107.816 114.52C108.456 113.72 108.776 112.824 108.776 111.832V110.536C108.776 109.544 108.456 108.648 107.816 107.848C107.208 107.048 106.424 106.648 105.464 106.648H103.592C103.432 106.648 103.352 106.568 103.352 106.408L103.4 101.032C103.4 100.904 103.464 100.84 103.592 100.84H105.464C106.328 100.84 107.096 100.504 107.768 99.832C108.44 99.16 108.776 98.28 108.776 97.192V96.52C108.776 95.496 108.424 94.632 107.72 93.928C107.048 93.192 106.2 92.824 105.176 92.824C104.184 92.824 103.336 93.192 102.632 93.928C101.96 94.632 101.624 95.496 101.624 96.52V98.824C101.624 98.984 101.56 99.064 101.432 99.064H96.056C95.928 99.064 95.864 98.984 95.864 98.824V96.28C95.864 94.52 96.296 92.952 97.16 91.576C98.056 90.2 99.208 89.112 100.616 88.312C102.056 87.48 103.576 87.064 105.176 87.064C106.904 87.064 108.472 87.496 109.88 88.36C111.32 89.192 112.456 90.312 113.288 91.72C114.12 93.128 114.536 94.68 114.536 96.376V97.144C114.536 98.552 114.296 99.768 113.816 100.792C113.368 101.816 112.728 102.792 111.896 103.72C112.728 104.68 113.384 105.736 113.864 106.888C114.344 108.008 114.584 109.176 114.584 110.392V111.832C114.584 113.624 114.152 115.256 113.288 116.728C112.456 118.2 111.32 119.368 109.88 120.232C108.472 121.096 106.904 121.528 105.176 121.528Z" fill="white"/>
<path d="M100.472 120.232L98.8614 122.763L98.8947 122.784L98.9285 122.804L100.472 120.232ZM97.064 116.68L94.4523 118.156L94.4644 118.177L94.4768 118.199L97.064 116.68ZM102.632 114.568L100.374 116.544L100.395 116.567L100.417 116.591L102.632 114.568ZM107.816 114.52L110.121 116.441L110.14 116.418L110.159 116.394L107.816 114.52ZM107.816 107.848L105.428 109.663L105.45 109.693L105.473 109.722L107.816 107.848ZM103.352 106.408L100.352 106.381L100.352 106.395V106.408H103.352ZM103.4 101.032L106.4 101.059L106.4 101.045V101.032H103.4ZM107.72 93.928L105.505 95.9508L105.55 96.0011L105.599 96.0493L107.72 93.928ZM102.632 93.928L100.464 91.8543L100.462 91.8566L102.632 93.928ZM97.16 91.576L94.646 89.939L94.6325 89.9597L94.6193 89.9807L97.16 91.576ZM100.616 88.312L102.098 90.9204L102.107 90.915L102.117 90.9096L100.616 88.312ZM109.88 88.36L108.311 90.917L108.345 90.9377L108.379 90.9576L109.88 88.36ZM113.288 91.72L110.705 93.2462L110.705 93.2462L113.288 91.72ZM113.816 100.792L111.1 99.5187L111.083 99.5539L111.068 99.5895L113.816 100.792ZM111.896 103.72L109.662 101.717L107.897 103.686L109.629 105.685L111.896 103.72ZM113.864 106.888L111.095 108.042L111.101 108.056L111.107 108.07L113.864 106.888ZM113.288 116.728L110.701 115.209L110.688 115.231L110.676 115.252L113.288 116.728ZM109.88 120.232L108.337 117.66L108.324 117.667L108.311 117.675L109.88 120.232ZM105.176 118.528C104.018 118.528 102.984 118.241 102.015 117.66L98.9285 122.804C100.84 123.951 102.942 124.528 105.176 124.528V118.528ZM102.083 117.701C101.085 117.066 100.28 116.233 99.6512 115.161L94.4768 118.199C95.5758 120.071 97.0428 121.606 98.8614 122.763L102.083 117.701ZM99.6757 115.204C99.1089 114.201 98.816 113.097 98.816 111.832H92.816C92.816 114.087 93.3551 116.215 94.4523 118.156L99.6757 115.204ZM98.816 111.832V109.672H92.816V111.832H98.816ZM98.816 109.672C98.816 109.913 98.781 110.648 98.2066 111.366C97.5299 112.212 96.6061 112.432 96.008 112.432V106.432C95.2819 106.432 94.2621 106.692 93.5214 107.618C92.883 108.416 92.816 109.271 92.816 109.672H98.816ZM96.008 112.432H101.384V106.432H96.008V112.432ZM101.384 112.432C101.002 112.432 100.164 112.334 99.4427 111.613C98.7216 110.892 98.624 110.054 98.624 109.672H104.624C104.624 109.13 104.486 108.172 103.685 107.371C102.884 106.57 101.926 106.432 101.384 106.432V112.432ZM98.624 109.672V111.832H104.624V109.672H98.624ZM98.624 111.832C98.624 113.587 99.2058 115.208 100.374 116.544L104.89 112.592C104.714 112.392 104.624 112.189 104.624 111.832H98.624ZM100.417 116.591C101.674 117.968 103.335 118.672 105.176 118.672V112.672C105.03 112.672 104.975 112.648 104.966 112.644C104.96 112.641 104.921 112.626 104.847 112.545L100.417 116.591ZM105.176 118.672C107.066 118.672 108.838 117.98 110.121 116.441L105.511 112.599C105.5 112.613 105.492 112.621 105.487 112.626C105.482 112.631 105.479 112.633 105.479 112.633C105.478 112.633 105.479 112.633 105.479 112.633C105.48 112.633 105.479 112.633 105.476 112.634C105.472 112.636 105.391 112.672 105.176 112.672V118.672ZM110.159 116.394C111.209 115.081 111.776 113.529 111.776 111.832H105.776C105.776 112.119 105.703 112.359 105.473 112.646L110.159 116.394ZM111.776 111.832V110.536H105.776V111.832H111.776ZM111.776 110.536C111.776 108.839 111.209 107.287 110.159 105.974L105.473 109.722C105.703 110.009 105.776 110.249 105.776 110.536H111.776ZM110.204 106.033C109.06 104.527 107.411 103.648 105.464 103.648V109.648C105.495 109.648 105.498 109.651 105.48 109.647C105.472 109.645 105.461 109.642 105.448 109.637C105.435 109.633 105.421 109.627 105.409 109.62C105.396 109.614 105.386 109.608 105.378 109.603C105.371 109.597 105.367 109.595 105.368 109.595C105.369 109.596 105.391 109.615 105.428 109.663L110.204 106.033ZM105.464 103.648H103.592V109.648H105.464V103.648ZM103.592 103.648C103.974 103.648 104.812 103.746 105.533 104.467C106.254 105.188 106.352 106.026 106.352 106.408H100.352C100.352 106.95 100.49 107.908 101.291 108.709C102.092 109.51 103.05 109.648 103.592 109.648V103.648ZM106.352 106.435L106.4 101.059L100.4 101.005L100.352 106.381L106.352 106.435ZM106.4 101.032C106.4 101.43 106.298 102.28 105.569 103.009C104.84 103.738 103.99 103.84 103.592 103.84V97.84C103.066 97.84 102.12 97.9736 101.327 98.7667C100.534 99.5597 100.4 100.506 100.4 101.032H106.4ZM103.592 103.84H105.464V97.84H103.592V103.84ZM105.464 103.84C107.207 103.84 108.716 103.126 109.889 101.953L105.647 97.7107C105.592 97.765 105.551 97.7973 105.526 97.8153C105.5 97.833 105.487 97.8388 105.486 97.8395C105.484 97.8401 105.487 97.8391 105.489 97.8386C105.491 97.8382 105.484 97.84 105.464 97.84V103.84ZM109.889 101.953C111.207 100.636 111.776 98.9505 111.776 97.192H105.776C105.776 97.6095 105.673 97.684 105.647 97.7107L109.889 101.953ZM111.776 97.192V96.52H105.776V97.192H111.776ZM111.776 96.52C111.776 94.7257 111.126 93.091 109.841 91.8067L105.599 96.0493C105.722 96.173 105.776 96.2663 105.776 96.52H111.776ZM109.935 91.9052C108.678 90.5275 107.017 89.824 105.176 89.824V95.824C105.322 95.824 105.377 95.8484 105.386 95.852C105.392 95.8548 105.431 95.8704 105.505 95.9508L109.935 91.9052ZM105.176 89.824C103.341 89.824 101.717 90.5445 100.464 91.8543L104.8 96.0017C104.904 95.8929 104.968 95.8615 104.99 95.852C105.01 95.8433 105.06 95.824 105.176 95.824V89.824ZM100.462 91.8566C99.2273 93.15 98.624 94.7689 98.624 96.52H104.624C104.624 96.2231 104.693 96.114 104.802 95.9994L100.462 91.8566ZM98.624 96.52V98.824H104.624V96.52H98.624ZM98.624 98.824C98.624 98.5835 98.659 97.8479 99.2334 97.1299C99.9101 96.2841 100.834 96.064 101.432 96.064V102.064C102.158 102.064 103.178 101.804 103.919 100.878C104.557 100.08 104.624 99.2245 104.624 98.824H98.624ZM101.432 96.064H96.056V102.064H101.432V96.064ZM96.056 96.064C96.6541 96.064 97.5779 96.2841 98.2546 97.1299C98.829 97.8479 98.864 98.5835 98.864 98.824H92.864C92.864 99.2245 92.931 100.08 93.5694 100.878C94.3101 101.804 95.3299 102.064 96.056 102.064V96.064ZM98.864 98.824V96.28H92.864V98.824H98.864ZM98.864 96.28C98.864 95.0355 99.1617 94.0296 99.7007 93.1713L94.6193 89.9807C93.4303 91.8744 92.864 94.0044 92.864 96.28H98.864ZM99.674 93.213C100.312 92.2327 101.113 91.4802 102.098 90.9204L99.134 85.7036C97.3033 86.7438 95.7997 88.1673 94.646 89.939L99.674 93.213ZM102.117 90.9096C103.119 90.3304 104.124 90.064 105.176 90.064V84.064C103.028 84.064 100.993 84.6296 99.1152 85.7144L102.117 90.9096ZM105.176 90.064C106.377 90.064 107.397 90.3563 108.311 90.917L111.449 85.803C109.547 84.6357 107.431 84.064 105.176 84.064V90.064ZM108.379 90.9576C109.38 91.536 110.14 92.2902 110.705 93.2462L115.871 90.1938C114.772 88.3338 113.26 86.848 111.381 85.7624L108.379 90.9576ZM110.705 93.2462C111.254 94.1744 111.536 95.1961 111.536 96.376H117.536C117.536 94.1639 116.986 92.0816 115.871 90.1938L110.705 93.2462ZM111.536 96.376V97.144H117.536V96.376H111.536ZM111.536 97.144C111.536 98.2169 111.353 98.9784 111.1 99.5187L116.532 102.065C117.239 100.558 117.536 98.8871 117.536 97.144H111.536ZM111.068 99.5895C110.761 100.29 110.306 101 109.662 101.717L114.13 105.723C115.15 104.584 115.975 103.342 116.564 101.994L111.068 99.5895ZM109.629 105.685C110.255 106.407 110.74 107.191 111.095 108.042L116.633 105.734C116.028 104.281 115.201 102.953 114.163 101.755L109.629 105.685ZM111.107 108.07C111.427 108.817 111.584 109.583 111.584 110.392H117.584C117.584 108.769 117.261 107.199 116.621 105.706L111.107 108.07ZM111.584 110.392V111.832H117.584V110.392H111.584ZM111.584 111.832C111.584 113.118 111.281 114.221 110.701 115.209L115.875 118.247C117.023 116.291 117.584 114.13 117.584 111.832H111.584ZM110.676 115.252C110.098 116.275 109.328 117.064 108.337 117.66L111.423 122.804C113.312 121.672 114.814 120.125 115.9 118.204L110.676 115.252ZM108.311 117.675C107.397 118.236 106.377 118.528 105.176 118.528V124.528C107.431 124.528 109.547 123.956 111.449 122.789L108.311 117.675Z" fill="#fff"/>
</g>
<defs>
<filter id="filter0_di_39_2183" x="80.816" y="76.064" width="48.768" height="64.464" filterUnits="userSpaceOnUse" color-interpolation-filters="sRGB">
<feFlood flood-opacity="0" result="BackgroundImageFix"/>
<feColorMatrix in="SourceAlpha" type="matrix" values="0 0 0 0 0 0 0 0 0 0 0 0 0 0 0 0 0 0 127 0" result="hardAlpha"/>
<feOffset dy="4"/>
<feGaussianBlur stdDeviation="7.5"/>
<feComposite in2="hardAlpha" operator="out"/>
<feColorMatrix type="matrix" values="0 0 0 0 0 0 0 0 0 0 0 0 0 0 0 0 0 0 0.25 0"/>
<feBlend mode="normal" in2="BackgroundImageFix" result="effect1_dropShadow_39_2183"/>
<feBlend mode="normal" in="SourceGraphic" in2="effect1_dropShadow_39_2183" result="shape"/>
<feColorMatrix in="SourceAlpha" type="matrix" values="0 0 0 0 0 0 0 0 0 0 0 0 0 0 0 0 0 0 127 0" result="hardAlpha"/>
<feOffset dy="-4"/>
<feGaussianBlur stdDeviation="2.5"/>
<feComposite in2="hardAlpha" operator="arithmetic" k2="-1" k3="1"/>
<feColorMatrix type="matrix" values="0 0 0 0 0.984314 0 0 0 0 0.988235 0 0 0 0 0.984314 0 0 0 0.65 0"/>
<feBlend mode="normal" in2="shape" result="effect2_innerShadow_39_2183"/>
</filter>
<radialGradient id="paint0_radial_39_2183" cx="0" cy="0" r="1" gradientUnits="userSpaceOnUse" gradientTransform="translate(105.002 105) scale(105.002 68.6293)">
<stop stop-color="#FF9609"/>
<stop offset="1" stop-color="#FF9609" stop-opacity="0"/>
</radialGradient>
<radialGradient id="paint1_radial_39_2183" cx="0" cy="0" r="1" gradientUnits="userSpaceOnUse" gradientTransform="translate(105.002 105) scale(105.002 68.6293)">
<stop stop-color="#FF9609"/>
<stop offset="1" stop-color="#FF9609" stop-opacity="0"/>
</radialGradient>
<radialGradient id="paint2_radial_39_2183" cx="0" cy="0" r="1" gradientUnits="userSpaceOnUse" gradientTransform="translate(105.002 105) scale(105.002 68.6293)">
<stop stop-color="#FF9609"/>
<stop offset="1" stop-color="#FF9609" stop-opacity="0"/>
</radialGradient>
<radialGradient id="paint3_radial_39_2183" cx="0" cy="0" r="1" gradientUnits="userSpaceOnUse" gradientTransform="translate(105.002 105) scale(105.002 68.6293)">
<stop stop-color="#FF9609"/>
<stop offset="1" stop-color="#FF9609" stop-opacity="0"/>
</radialGradient>
<radialGradient id="paint4_radial_39_2183" cx="0" cy="0" r="1" gradientUnits="userSpaceOnUse" gradientTransform="translate(105.002 105) scale(105.002 68.6293)">
<stop stop-color="#FF9609"/>
<stop offset="1" stop-color="#FF9609" stop-opacity="0"/>
</radialGradient>
<radialGradient id="paint5_radial_39_2183" cx="0" cy="0" r="1" gradientUnits="userSpaceOnUse" gradientTransform="translate(105.002 105) scale(105.002 68.6293)">
<stop stop-color="#FF9609"/>
<stop offset="1" stop-color="#FF9609" stop-opacity="0"/>
</radialGradient>
<radialGradient id="paint6_radial_39_2183" cx="0" cy="0" r="1" gradientUnits="userSpaceOnUse" gradientTransform="translate(105.002 105) scale(105.002 68.6293)">
<stop stop-color="#FF9609"/>
<stop offset="1" stop-color="#FF9609" stop-opacity="0"/>
</radialGradient>
<radialGradient id="paint7_radial_39_2183" cx="0" cy="0" r="1" gradientUnits="userSpaceOnUse" gradientTransform="translate(105.002 105) scale(105.002 68.6293)">
<stop stop-color="#FF9609"/>
<stop offset="1" stop-color="#FF9609" stop-opacity="0"/>
</radialGradient>
<radialGradient id="paint8_radial_39_2183" cx="0" cy="0" r="1" gradientUnits="userSpaceOnUse" gradientTransform="translate(105.002 105) scale(105.002 68.6293)">
<stop stop-color="#FF9609"/>
<stop offset="1" stop-color="#FF9609" stop-opacity="0"/>
</radialGradient>
<radialGradient id="paint9_radial_39_2183" cx="0" cy="0" r="1" gradientUnits="userSpaceOnUse" gradientTransform="translate(105.002 105) scale(105.002 68.6293)">
<stop stop-color="#FF9609"/>
<stop offset="1" stop-color="#FF9609" stop-opacity="0"/>
</radialGradient>
<radialGradient id="paint10_radial_39_2183" cx="0" cy="0" r="1" gradientUnits="userSpaceOnUse" gradientTransform="translate(105.002 105) scale(105.002 68.6293)">
<stop stop-color="#FF9609"/>
<stop offset="1" stop-color="#FF9609" stop-opacity="0"/>
</radialGradient>
<radialGradient id="paint11_radial_39_2183" cx="0" cy="0" r="1" gradientUnits="userSpaceOnUse" gradientTransform="translate(105.002 105) scale(105.002 68.6293)">
<stop stop-color="#FF9609"/>
<stop offset="1" stop-color="#FF9609" stop-opacity="0"/>
</radialGradient>
<radialGradient id="paint12_radial_39_2183" cx="0" cy="0" r="1" gradientUnits="userSpaceOnUse" gradientTransform="translate(105.002 105) scale(105.002 68.6293)">
<stop stop-color="#FF9609"/>
<stop offset="1" stop-color="#FF9609" stop-opacity="0"/>
</radialGradient>
<radialGradient id="paint13_radial_39_2183" cx="0" cy="0" r="1" gradientUnits="userSpaceOnUse" gradientTransform="translate(105.002 105) scale(105.002 68.6293)">
<stop stop-color="#FF9609"/>
<stop offset="1" stop-color="#FF9609" stop-opacity="0"/>
</radialGradient>
<radialGradient id="paint14_radial_39_2183" cx="0" cy="0" r="1" gradientUnits="userSpaceOnUse" gradientTransform="translate(105.002 105) scale(105.002 68.6293)">
<stop stop-color="#FF9609"/>
<stop offset="1" stop-color="#FF9609" stop-opacity="0"/>
</radialGradient>
<radialGradient id="paint15_radial_39_2183" cx="0" cy="0" r="1" gradientUnits="userSpaceOnUse" gradientTransform="translate(105.002 105) scale(105.002 68.6293)">
<stop stop-color="#FF9609"/>
<stop offset="1" stop-color="#FF9609" stop-opacity="0"/>
</radialGradient>
<radialGradient id="paint16_radial_39_2183" cx="0" cy="0" r="1" gradientUnits="userSpaceOnUse" gradientTransform="translate(105.002 105) scale(105.002 68.6293)">
<stop stop-color="#FF9609"/>
<stop offset="1" stop-color="#FF9609" stop-opacity="0"/>
</radialGradient>
<radialGradient id="paint17_radial_39_2183" cx="0" cy="0" r="1" gradientUnits="userSpaceOnUse" gradientTransform="translate(105.002 105) scale(105.002 68.6293)">
<stop stop-color="#FF9609"/>
<stop offset="1" stop-color="#FF9609" stop-opacity="0"/>
</radialGradient>
<radialGradient id="paint18_radial_39_2183" cx="0" cy="0" r="1" gradientUnits="userSpaceOnUse" gradientTransform="translate(105.002 105) scale(105.002 68.6293)">
<stop stop-color="#FF9609"/>
<stop offset="1" stop-color="#FF9609" stop-opacity="0"/>
</radialGradient>
<radialGradient id="paint19_radial_39_2183" cx="0" cy="0" r="1" gradientUnits="userSpaceOnUse" gradientTransform="translate(105.002 105) scale(105.002 68.6293)">
<stop stop-color="#FF9609"/>
<stop offset="1" stop-color="#FF9609" stop-opacity="0"/>
</radialGradient>
<radialGradient id="paint20_radial_39_2183" cx="0" cy="0" r="1" gradientUnits="userSpaceOnUse" gradientTransform="translate(105.002 105) scale(105.002 68.6293)">
<stop stop-color="#FF9609"/>
<stop offset="1" stop-color="#FF9609" stop-opacity="0"/>
</radialGradient>
<radialGradient id="paint21_radial_39_2183" cx="0" cy="0" r="1" gradientUnits="userSpaceOnUse" gradientTransform="translate(105.002 105) scale(105.002 68.6293)">
<stop stop-color="#FF9609"/>
<stop offset="1" stop-color="#FF9609" stop-opacity="0"/>
</radialGradient>
<radialGradient id="paint22_radial_39_2183" cx="0" cy="0" r="1" gradientUnits="userSpaceOnUse" gradientTransform="translate(105.002 105) scale(105.002 68.6293)">
<stop stop-color="#FF9609"/>
<stop offset="1" stop-color="#FF9609" stop-opacity="0"/>
</radialGradient>
<radialGradient id="paint23_radial_39_2183" cx="0" cy="0" r="1" gradientUnits="userSpaceOnUse" gradientTransform="translate(105.002 105) scale(105.002 68.6293)">
<stop stop-color="#FF9609"/>
<stop offset="1" stop-color="#FF9609" stop-opacity="0"/>
</radialGradient>
<radialGradient id="paint24_radial_39_2183" cx="0" cy="0" r="1" gradientUnits="userSpaceOnUse" gradientTransform="translate(105.002 105) scale(105.002 68.6293)">
<stop stop-color="#FF9609"/>
<stop offset="1" stop-color="#FF9609" stop-opacity="0"/>
</radialGradient>
<radialGradient id="paint25_radial_39_2183" cx="0" cy="0" r="1" gradientUnits="userSpaceOnUse" gradientTransform="translate(105.002 105) scale(105.002 68.6293)">
<stop stop-color="#FF9609"/>
<stop offset="1" stop-color="#FF9609" stop-opacity="0"/>
</radialGradient>
<radialGradient id="paint26_radial_39_2183" cx="0" cy="0" r="1" gradientUnits="userSpaceOnUse" gradientTransform="translate(105.002 105) scale(105.002 68.6293)">
<stop stop-color="#FF9609"/>
<stop offset="1" stop-color="#FF9609" stop-opacity="0"/>
</radialGradient>
<radialGradient id="paint27_radial_39_2183" cx="0" cy="0" r="1" gradientUnits="userSpaceOnUse" gradientTransform="translate(105.002 105) scale(105.002 68.6293)">
<stop stop-color="#FF9609"/>
<stop offset="1" stop-color="#FF9609" stop-opacity="0"/>
</radialGradient>
<radialGradient id="paint28_radial_39_2183" cx="0" cy="0" r="1" gradientUnits="userSpaceOnUse" gradientTransform="translate(105.002 105) scale(105.002 68.6293)">
<stop stop-color="#FF9609"/>
<stop offset="1" stop-color="#FF9609" stop-opacity="0"/>
</radialGradient>
<radialGradient id="paint29_radial_39_2183" cx="0" cy="0" r="1" gradientUnits="userSpaceOnUse" gradientTransform="translate(105.002 105) scale(105.002 68.6293)">
<stop stop-color="#FF9609"/>
<stop offset="1" stop-color="#FF9609" stop-opacity="0"/>
</radialGradient>
<radialGradient id="paint30_radial_39_2183" cx="0" cy="0" r="1" gradientUnits="userSpaceOnUse" gradientTransform="translate(105.002 105) scale(105.002 68.6293)">
<stop stop-color="#FF9609"/>
<stop offset="1" stop-color="#FF9609" stop-opacity="0"/>
</radialGradient>
<radialGradient id="paint31_radial_39_2183" cx="0" cy="0" r="1" gradientUnits="userSpaceOnUse" gradientTransform="translate(105.002 105) scale(105.002 68.6293)">
<stop stop-color="#FF9609"/>
<stop offset="1" stop-color="#FF9609" stop-opacity="0"/>
</radialGradient>
<radialGradient id="paint32_radial_39_2183" cx="0" cy="0" r="1" gradientUnits="userSpaceOnUse" gradientTransform="translate(105.002 105) scale(105.002 68.6293)">
<stop stop-color="#FF9609"/>
<stop offset="1" stop-color="#FF9609" stop-opacity="0"/>
</radialGradient>
<radialGradient id="paint33_radial_39_2183" cx="0" cy="0" r="1" gradientUnits="userSpaceOnUse" gradientTransform="translate(105.002 105) scale(105.002 68.6293)">
<stop stop-color="#FF9609"/>
<stop offset="1" stop-color="#FF9609" stop-opacity="0"/>
</radialGradient>
<radialGradient id="paint34_radial_39_2183" cx="0" cy="0" r="1" gradientUnits="userSpaceOnUse" gradientTransform="translate(105.002 105) scale(105.002 68.6293)">
<stop stop-color="#FF9609"/>
<stop offset="1" stop-color="#FF9609" stop-opacity="0"/>
</radialGradient>
<radialGradient id="paint35_radial_39_2183" cx="0" cy="0" r="1" gradientUnits="userSpaceOnUse" gradientTransform="translate(105.002 105) scale(105.002 68.6293)">
<stop stop-color="#FF9609"/>
<stop offset="1" stop-color="#FF9609" stop-opacity="0"/>
</radialGradient>
<radialGradient id="paint36_radial_39_2183" cx="0" cy="0" r="1" gradientUnits="userSpaceOnUse" gradientTransform="translate(105.002 105) scale(105.002 68.6293)">
<stop stop-color="#FF9609"/>
<stop offset="1" stop-color="#FF9609" stop-opacity="0"/>
</radialGradient>
</defs>
</svg>
