<svg width="26" height="26" viewBox="0 0 26 26" fill="none" xmlns="http://www.w3.org/2000/svg">
<path d="M1.89634 3.25002C1.78867 3.2485 1.68178 3.26839 1.58187 3.30854C1.48195 3.34869 1.39102 3.40829 1.31434 3.48389C1.23767 3.55949 1.17678 3.64957 1.13522 3.74891C1.09367 3.84824 1.07227 3.95484 1.07227 4.06252C1.07227 4.1702 1.09367 4.2768 1.13522 4.37613C1.17678 4.47547 1.23767 4.56555 1.31434 4.64115C1.39102 4.71675 1.48195 4.77635 1.58187 4.8165C1.68178 4.85665 1.78867 4.87654 1.89634 4.87502H3.38909C3.78339 4.87502 4.11207 5.14744 4.18678 5.53518L4.34865 6.38153L6.09531 15.555C6.41117 17.21 7.86937 18.4167 9.55478 18.4167H19.6962C21.3816 18.4167 22.8405 17.2105 23.1557 15.555L24.9024 6.38153C24.9248 6.26408 24.921 6.14313 24.8913 6.02731C24.8615 5.91149 24.8066 5.80366 24.7304 5.7115C24.6542 5.61935 24.5587 5.54514 24.4505 5.49418C24.3423 5.44322 24.2242 5.41676 24.1047 5.41669H5.81813L5.78322 5.23155C5.56486 4.08718 4.55428 3.25002 3.38909 3.25002H1.89634ZM6.12811 7.04169H23.1229L21.5593 15.2513C21.3881 16.1503 20.6119 16.7917 19.6962 16.7917H9.55478C8.63944 16.7917 7.86376 16.1502 7.69175 15.2513V15.2503L6.12811 7.04169ZM10.8338 19.5C10.4029 19.5 9.98954 19.6712 9.68479 19.976C9.38004 20.2807 9.20884 20.694 9.20884 21.125C9.20884 21.556 9.38004 21.9693 9.68479 22.2741C9.98954 22.5788 10.4029 22.75 10.8338 22.75C11.2648 22.75 11.6781 22.5788 11.9829 22.2741C12.2876 21.9693 12.4588 21.556 12.4588 21.125C12.4588 20.694 12.2876 20.2807 11.9829 19.976C11.6781 19.6712 11.2648 19.5 10.8338 19.5ZM18.4172 19.5C17.9862 19.5 17.5729 19.6712 17.2681 19.976C16.9634 20.2807 16.7922 20.694 16.7922 21.125C16.7922 21.556 16.9634 21.9693 17.2681 22.2741C17.5729 22.5788 17.9862 22.75 18.4172 22.75C18.8481 22.75 19.2615 22.5788 19.5662 22.2741C19.871 21.9693 20.0422 21.556 20.0422 21.125C20.0422 20.694 19.871 20.2807 19.5662 19.976C19.2615 19.6712 18.8481 19.5 18.4172 19.5Z" fill="white"/>
</svg>
