<svg width="35" height="137" viewBox="0 0 35 137" fill="none" xmlns="http://www.w3.org/2000/svg">
<path d="M0.253652 133.789C0.186936 134.892 1.02665 135.84 2.1292 135.906L20.0963 136.993C21.1989 137.06 22.1468 136.22 22.2135 135.118C22.2802 134.015 21.4405 133.067 20.3379 133.001L4.36715 132.034L5.33355 116.064C5.40026 114.961 4.56055 114.013 3.458 113.946C2.35545 113.88 1.40757 114.719 1.34085 115.822L0.253652 133.789ZM1.71716 1.98688C21.6793 37.1738 30.8089 61.3921 30.3749 80.9303C29.9458 100.252 20.1354 115.394 0.923787 132.413L3.57621 135.407C23.1444 118.072 33.9088 101.962 34.3739 81.0192C34.8343 60.2928 25.1773 35.2333 5.19627 0.0131183L1.71716 1.98688Z" fill="#FF9609"/>
</svg>
