<svg width="827" height="145" viewBox="0 0 827 145" fill="none" xmlns="http://www.w3.org/2000/svg">
<path d="M755.332 113.897C754.722 114.819 754.976 116.059 755.897 116.668L770.914 126.594C771.835 127.203 773.076 126.949 773.685 126.028C774.294 125.106 774.041 123.866 773.119 123.257L759.771 114.434L768.594 101.086C769.203 100.165 768.949 98.9242 768.028 98.3151C767.106 97.7061 765.866 97.9593 765.257 98.8808L755.332 113.897ZM822.5 0.484885C822.194 40.9387 817.992 66.4772 807.847 83.1808C797.814 99.6991 781.747 107.907 756.6 113.04L757.4 116.96C783.014 111.731 800.391 103.162 811.266 85.2572C822.027 67.5378 826.194 41.0073 826.5 0.515115L822.5 0.484885Z" fill="#FF9609"/>
<path d="M55.2537 141.789C55.1869 142.892 56.0266 143.84 57.1292 143.906L75.0963 144.993C76.1989 145.06 77.1468 144.22 77.2135 143.118C77.2802 142.015 76.4405 141.067 75.3379 141.001L59.3671 140.034L60.3335 124.064C60.4003 122.961 59.5606 122.013 58.458 121.946C57.3554 121.88 56.4076 122.719 56.3409 123.822L55.2537 141.789ZM56.7172 9.98688C76.6793 45.1738 85.8089 69.3921 85.3749 88.9303C84.9458 108.252 75.1354 123.394 55.9238 140.413L58.5762 143.407C78.1444 126.072 88.9088 109.962 89.3739 89.0191C89.8343 68.2928 80.1773 43.2333 60.1963 8.01312L56.7172 9.98688Z" fill="#FF9609"/>
</svg>
