<svg width="27" height="49" viewBox="0 0 27 49" fill="none" xmlns="http://www.w3.org/2000/svg">
<path d="M0.166796 42.447C-0.138599 42.9072 -0.0131313 43.5278 0.447035 43.8332L7.94587 48.8099C8.40604 49.1153 9.02665 48.9898 9.33204 48.5297C9.63744 48.0695 9.51197 47.4489 9.0518 47.1435L2.38617 42.7198L6.80989 36.0541C7.11529 35.594 6.98982 34.9734 6.52965 34.668C6.06949 34.3626 5.44888 34.488 5.14348 34.9482L0.166796 42.447ZM25 0.992369C24.8868 15.8282 23.3279 25.1281 19.6128 31.1864C15.9532 37.1539 10.088 40.1425 0.801841 42.0198L1.19816 43.9802C10.7126 42.0567 17.234 38.8912 21.3177 32.2319C25.3458 25.6634 26.8866 15.8637 27 1.00763L25 0.992369Z" fill="#FF9609"/>
</svg>
