<svg width="60" height="60" viewBox="0 0 60 60" fill="none" xmlns="http://www.w3.org/2000/svg">
<circle cx="30" cy="30" r="28.5" stroke="#FF9811" stroke-width="3"/>
<path d="M35.2398 22.5019C35.036 22.2951 34.7058 22.2951 34.502 22.5019L30.0006 27.0676L25.4996 22.5019C25.2957 22.2951 24.9656 22.2951 24.7617 22.5019L22.5006 24.7953C22.2968 25.0021 22.2968 25.3369 22.5006 25.5437L26.894 29.9999L22.5006 34.456C22.2968 34.6628 22.2968 34.9976 22.5006 35.2044L24.7617 37.4979C24.9656 37.7046 25.2957 37.7046 25.4996 37.4979L30.0006 32.9321L34.502 37.4979C34.7058 37.7046 35.036 37.7046 35.2398 37.4979L37.501 35.2041C37.7048 34.9973 37.7048 34.6624 37.501 34.4557L33.1079 29.9999L37.501 25.544C37.7048 25.3373 37.7048 25.0024 37.501 24.7957L35.2398 22.5019Z" fill="white"/>
</svg>
