<svg width="117" height="116" viewBox="0 0 117 116" fill="none" xmlns="http://www.w3.org/2000/svg">
<path fill-rule="evenodd" clip-rule="evenodd" d="M53.0027 115.511C54.7684 115.678 56.5758 115.769 58.3938 115.769C64.6416 115.769 70.7745 114.672 76.5592 112.669C72.2651 111.997 67.7516 111.82 62.3152 113.035C59.6197 113.634 56.2903 114.651 53.0027 115.511ZM43.1503 113.725C45.6787 114.414 48.2628 114.94 50.9096 115.285C51.9265 114.989 52.9052 114.682 53.6922 114.386C67.5043 109.086 69.9317 102.667 87.4564 107.623C89.3126 106.516 91.1201 105.314 92.8475 104.008C90.131 103.378 87.5573 102.841 85.1857 102.587C65.9058 100.456 55.6216 108.807 43.1503 113.725ZM22.3799 103.071C24.3058 104.621 26.3292 106.052 28.4501 107.355C55.5903 109.114 60.6819 95.5488 88.4315 100.693C90.7126 101.118 92.8649 101.699 94.9753 102.35C95.7555 101.71 96.5147 101.048 97.2669 100.365C92.5689 99.021 86.5439 97.1961 80.9577 96.7016C71.391 95.8727 63.7396 97.4608 55.8027 100.087C47.8066 102.723 41.0433 105.004 30.9855 104.283C30.0521 104.217 26.5277 103.716 22.3799 103.071ZM115.997 0.748047H63.0152C58.5818 0.915213 53.9639 0.974419 49.5897 1.64657C21.6311 5.93021 1 30.1171 1 58.3821C1 74.5625 7.69361 89.1825 18.4619 99.6061C23.1704 99.3797 27.7919 98.9653 32.7477 97.8404C40.5766 96.0433 46.9429 92.8149 55.6808 91.7806C74.5149 89.5587 86.8956 96.3219 97.7649 99.916C108.822 89.6701 116 75.346 116 59.6672V0.748047H115.997Z" fill="white"/>
<path fill-rule="evenodd" clip-rule="evenodd" d="M53.0027 115.511C54.7684 115.678 56.5758 115.769 58.3938 115.769C64.6416 115.769 70.7745 114.672 76.5592 112.669C72.2651 111.997 67.7516 111.82 62.3152 113.035C59.6197 113.634 56.2903 114.651 53.0027 115.511ZM43.1503 113.725C45.6787 114.414 48.2628 114.94 50.9096 115.285C51.9265 114.989 52.9052 114.682 53.6922 114.386C67.5043 109.086 69.9317 102.667 87.4564 107.623C89.3126 106.516 91.1201 105.314 92.8475 104.008C90.131 103.378 87.5573 102.841 85.1857 102.587C65.9058 100.456 55.6216 108.807 43.1503 113.725ZM22.3799 103.071C24.3058 104.621 26.3292 106.052 28.4501 107.355C55.5903 109.114 60.6819 95.5488 88.4315 100.693C90.7126 101.118 92.8649 101.699 94.9753 102.35C95.7555 101.71 96.5147 101.048 97.2669 100.365C92.5689 99.021 86.5439 97.1961 80.9577 96.7016C71.391 95.8727 63.7396 97.4608 55.8027 100.087C47.8066 102.723 41.0433 105.004 30.9855 104.283C30.0521 104.217 26.5277 103.716 22.3799 103.071ZM115.997 0.748047H63.0152C58.5818 0.915213 53.9639 0.974419 49.5897 1.64657C21.6311 5.93021 1 30.1171 1 58.3821C1 74.5625 7.69361 89.1825 18.4619 99.6061C23.1704 99.3797 27.7919 98.9653 32.7477 97.8404C40.5766 96.0433 46.9429 92.8149 55.6808 91.7806C74.5149 89.5587 86.8956 96.3219 97.7649 99.916C108.822 89.6701 116 75.346 116 59.6672V0.748047H115.997Z" fill="white"/>
<path d="M115.997 0.748047H63.0152C58.5818 0.915213 53.9639 0.974419 49.5897 1.64657C21.6311 5.93021 1 30.1171 1 58.3821C1 74.5625 7.69361 89.1825 18.4619 99.6061C23.1704 99.3797 27.7919 98.9653 32.7477 97.8404C40.5766 96.0433 46.9429 92.8149 55.6808 91.7806C74.5149 89.5587 86.8956 96.3219 97.7649 99.916C108.822 89.6701 116 75.346 116 59.6672V0.748047H115.997Z" fill="white"/>
<path d="M115.997 0.748047H63.0152C58.5818 0.915213 53.9639 0.974419 49.5897 1.64657C21.6311 5.93021 1 30.1171 1 58.3821C1 74.5625 7.69361 89.1825 18.4619 99.6061C23.1704 99.3797 27.7919 98.9653 32.7477 97.8404C40.5766 96.0433 46.9429 92.8149 55.6808 91.7806C74.5149 89.5587 86.8956 96.3219 97.7649 99.916C108.822 89.6701 116 75.346 116 59.6672V0.748047H115.997Z" fill="white"/>
<path d="M115.997 0.748047H63.0152C58.5818 0.915213 53.9639 0.974419 49.5897 1.64657C21.6311 5.93021 1 30.1171 1 58.3821C1 74.5625 7.69361 89.1825 18.4619 99.6061C23.1704 99.3797 27.7919 98.9653 32.7477 97.8404C40.5766 96.0433 46.9429 92.8149 55.6808 91.7806C74.5149 89.5587 86.8956 96.3219 97.7649 99.916C108.822 89.6701 116 75.346 116 59.6672V0.748047H115.997Z" stroke="white" stroke-width="0.2268" stroke-miterlimit="3.8637"/>
<path d="M22.3799 103.071C24.3058 104.621 26.3292 106.052 28.4501 107.355C55.5903 109.114 60.6819 95.5487 88.4315 100.693C90.7126 101.117 92.8649 101.699 94.9754 102.35C95.7555 101.71 96.5147 101.048 97.2669 100.365C92.5689 99.0209 86.5439 97.196 80.9578 96.7015C71.391 95.8726 63.7396 97.4607 55.8027 100.087C47.8066 102.723 41.0433 105.004 30.9855 104.283C30.0521 104.217 26.5277 103.716 22.3799 103.071Z" fill="white"/>
<path d="M22.3799 103.071C24.3058 104.621 26.3292 106.052 28.4501 107.355C55.5903 109.114 60.6819 95.5487 88.4315 100.693C90.7126 101.117 92.8649 101.699 94.9754 102.35C95.7555 101.71 96.5147 101.048 97.2669 100.365C92.5689 99.0209 86.5439 97.196 80.9578 96.7015C71.391 95.8726 63.7396 97.4607 55.8027 100.087C47.8066 102.723 41.0433 105.004 30.9855 104.283C30.0521 104.217 26.5277 103.716 22.3799 103.071Z" fill="white"/>
<path d="M22.3799 103.071C24.3058 104.621 26.3292 106.052 28.4501 107.355C55.5903 109.114 60.6819 95.5487 88.4315 100.693C90.7126 101.117 92.8649 101.699 94.9754 102.35C95.7555 101.71 96.5147 101.048 97.2669 100.365C92.5689 99.0209 86.5439 97.196 80.9578 96.7015C71.391 95.8726 63.7396 97.4607 55.8027 100.087C47.8066 102.723 41.0433 105.004 30.9855 104.283C30.0521 104.217 26.5277 103.716 22.3799 103.071Z" stroke="white" stroke-width="0.2268" stroke-miterlimit="3.8637"/>
<path d="M43.1503 113.724C45.6787 114.414 48.2628 114.94 50.9096 115.285C51.9265 114.989 52.9051 114.682 53.6922 114.386C67.5043 109.086 69.9317 102.667 87.4563 107.623C89.3126 106.515 91.12 105.314 92.8474 104.008C90.131 103.378 87.5573 102.841 85.1856 102.587C65.9058 100.456 55.6216 108.807 43.1503 113.724Z" fill="white"/>
<path d="M43.1503 113.724C45.6787 114.414 48.2628 114.94 50.9096 115.285C51.9265 114.989 52.9051 114.682 53.6922 114.386C67.5043 109.086 69.9317 102.667 87.4563 107.623C89.3126 106.515 91.12 105.314 92.8474 104.008C90.131 103.378 87.5573 102.841 85.1856 102.587C65.9058 100.456 55.6216 108.807 43.1503 113.724Z" fill="white"/>
<path d="M43.1503 113.724C45.6787 114.414 48.2628 114.94 50.9096 115.285C51.9265 114.989 52.9051 114.682 53.6922 114.386C67.5043 109.086 69.9317 102.667 87.4563 107.623C89.3126 106.515 91.12 105.314 92.8474 104.008C90.131 103.378 87.5573 102.841 85.1856 102.587C65.9058 100.456 55.6216 108.807 43.1503 113.724Z" stroke="white" stroke-width="0.2268" stroke-miterlimit="3.8637"/>
<path d="M53.0027 115.511C54.7684 115.678 56.5759 115.769 58.3938 115.769C64.6416 115.769 70.7746 114.672 76.5592 112.669C72.2651 111.997 67.7516 111.82 62.3153 113.035C59.6197 113.634 56.2903 114.651 53.0027 115.511Z" fill="white"/>
<path d="M53.0027 115.511C54.7684 115.678 56.5759 115.769 58.3938 115.769C64.6416 115.769 70.7746 114.672 76.5592 112.669C72.2651 111.997 67.7516 111.82 62.3153 113.035C59.6197 113.634 56.2903 114.651 53.0027 115.511Z" fill="white"/>
<path d="M53.0027 115.511C54.7684 115.678 56.5759 115.769 58.3938 115.769C64.6416 115.769 70.7746 114.672 76.5592 112.669C72.2651 111.997 67.7516 111.82 62.3153 113.035C59.6197 113.634 56.2903 114.651 53.0027 115.511Z" stroke="white" stroke-width="0.2268" stroke-miterlimit="3.8637"/>
<path fill-rule="evenodd" clip-rule="evenodd" d="M35.0184 48.3034L35.0881 48.3138C34.9592 48.4636 35.0393 48.4531 34.7711 48.5228C34.792 48.474 34.7502 48.474 34.8199 48.4044C34.9279 48.3103 34.907 48.3417 35.0184 48.3034ZM32.3995 24.5414C34.5622 21.8667 37.8602 19.0318 41.51 17.4055L43.5439 16.5174C44.2544 16.2214 46.525 15.3611 47.1658 15.2532C49.5062 10.0606 47.2355 4.57195 53.4555 8.13469C56.367 9.80287 61.3541 12.9616 61.6605 14.1353C62.9526 14.3616 64.2969 14.4696 65.6482 14.7378C76.1901 16.7612 85.7987 23.009 86.8748 31.0678C87.0803 32.5793 86.7564 31.928 89.2918 32.7465C89.9813 32.9624 90.6639 33.2305 91.2943 33.5057C92.0848 33.8504 94.1779 34.8569 94.5122 35.2923C94.6306 35.8634 92.2799 35.6092 91.3744 37.5943C90.9112 38.6112 90.7022 41.0281 90.3261 41.366C89.4485 41.366 89.8211 40.9794 88.846 40.4779C89.034 41.1396 89.647 42.6093 90.0301 43.271C91.3813 45.0959 96.5461 50.6158 96.2083 51.7721C95.7033 53.4298 90.2564 50.2014 84.9454 49.7382C80.0384 49.3133 68.3124 57.1423 72.892 49.8183C75.6747 45.3675 81.233 43.6471 79.4289 37.3017C79.213 36.5425 78.5896 35.4943 77.9279 34.8743C76.911 33.8957 75.9916 33.5335 75.0861 32.8126C75.4901 33.4743 76.4374 33.6415 74.0309 33.5335C72.0667 33.2758 69.4895 32.0708 68.187 31.0365C67.7935 30.73 67.5845 30.4444 67.2989 30.1972C66.8462 29.8141 64.4641 29.6434 63.7466 29.6434C62.3954 29.6434 61.7824 29.8594 60.8038 30.1449C58.3764 30.8449 55.1863 32.2484 53.5495 33.739C53.4311 34.0559 53.1072 36.553 53.9848 38.3605C56.1162 42.7521 55.8097 41.6481 48.5241 37.4515C48.2071 37.6396 47.6952 38.1619 47.4096 38.4197C47.0648 38.7157 46.5006 39.1023 46.4414 39.5445C46.2429 41.1535 45.4837 42.16 43.6971 42.961C43.0145 43.257 43.0459 43.3963 42.5513 43.9466C42.3946 44.1138 41.921 44.6362 41.4543 45.1307C40.9598 45.6635 40.4478 46.1267 39.9324 46.6422C38.0762 48.4183 35.6488 50.4522 33.103 51.6955C31.9467 52.2562 29.185 53.5517 28.0288 52.5348C27.7606 52.298 27.4959 51.8452 27.7432 51.389C27.9591 50.9745 28.485 50.776 28.8576 50.5706C30.5258 49.6616 31.9293 48.2616 32.5214 46.3635C32.0791 46.4611 31.2885 46.778 30.8636 46.9173C27.9417 47.8646 27.6666 49.3865 26.6775 49.8113C26.1238 50.0482 25.2949 50.0482 24.7412 49.5745C24.3058 49.2089 24.2466 48.7248 24.1491 48.2616C23.5188 45.1725 25.6501 38.2804 26.883 35.0345C31.0308 24.0782 27.2591 35.0136 26.2596 38.0366C25.3715 40.7426 24.2048 45.2839 24.5009 48.0875C24.7272 50.1596 26.2875 49.8636 26.8586 49.3412C27.8651 48.4427 28.3701 47.673 29.582 47.1994C30.1532 46.973 31.5671 46.4297 32.1592 46.3009C32.5841 46.2033 32.692 46.2416 32.8487 45.8063C31.783 45.8655 30.2333 46.5551 29.4636 46.9521C28.478 47.4571 27.6074 48.2059 26.8168 48.9546C27.3009 47.7218 28.694 46.7048 29.7875 46.0919C30.4283 45.7262 33.1134 44.4829 33.8343 44.5317C32.699 46.4959 32.5423 48.373 30.6059 49.982C29.5193 50.8805 28.3352 51.1487 28.3074 51.7198C28.2168 53.7432 32.1278 51.8487 32.887 51.5039C34.0711 50.891 35.4433 50.0621 36.4498 49.2541C37.4075 48.4845 38.306 47.673 39.215 46.8964C40.0055 46.2068 40.1832 45.9979 40.8727 45.2387C41.6737 44.361 42.7882 43.156 42.8683 43.0968C43.9235 42.3376 45.3374 41.7247 45.7797 40.2028C46.1663 38.9107 45.5534 39.7674 46.7166 38.4963C49.6977 35.2679 52.1843 33.2828 56.6665 31.1897C59.3516 29.9151 61.9775 29.1663 65.2442 28.8877C66.073 28.818 66.9019 28.8076 67.7308 28.7414C66.2402 28.2782 66.9716 27.8638 68.382 27.0523C69.9318 26.1643 72.3592 25.4538 74.2363 25.1473C81.522 24.5553 75.915 25.6802 74.9363 26.5683C74.2468 27.1917 74.2642 28.9782 73.2194 29.1141L72.7075 29.2046C73.3901 29.3509 74.3861 29.5703 75.1174 29.8071C76.5801 30.2912 78.0289 30.9529 79.3036 31.7435C79.6205 31.9524 80.2334 32.3738 80.7454 32.7708C81.9399 33.6798 81.7832 33.6694 80.5678 32.9206C76.904 30.6604 73.7174 29.4275 69.1656 29.1907C68.1696 29.1419 65.5506 29.1698 64.8019 29.3474C65.5332 29.4554 66.2716 29.5041 67.0134 29.6225C67.7935 29.7409 67.6855 29.5424 69.1169 29.6016C69.8378 29.6399 70.5796 29.7096 71.297 29.8385C72.7179 30.1066 74.0413 30.824 74.6926 31.7818C75.2742 32.6211 75.0478 32.2241 76.2423 32.9763C78.3354 34.2092 79.7667 35.8773 80.2613 37.7754C80.9613 40.4988 79.4324 42.2784 80.2334 43.3824C81.7728 45.5138 87.54 45.0193 88.7519 43.4312C89.5216 42.4351 88.1704 40.2028 87.8534 39.0082C87.4599 37.5281 86.6589 36.3719 85.6524 35.0589C85.2763 34.5957 84.6459 34.0629 84.4962 33.8748C85.4748 33.7181 88.6927 34.7629 89.7584 35.0415C88.9992 34.2405 86.5196 33.7077 85.0778 33.5231C84.3569 33.4256 83.8728 33.4848 83.6777 33.0181C84.3603 32.8509 86.8853 33.2549 87.7141 33.4221C89.3127 33.7564 90.2216 34.143 91.5729 34.6271V34.5888C87.1813 32.0917 83.4862 32.7116 82.9534 32.4957C82.8559 32.4469 82.626 32.2867 82.5076 32.2206C82.2917 32.1126 82.1036 32.0534 81.9364 31.9629C82.7374 31.7156 85.3703 31.8723 86.2793 32.0917C86.4081 31.6494 85.7256 29.6539 85.4609 29.0305C84.74 27.4598 83.5071 25.5862 82.1524 24.2244C81.0379 23.117 79.9513 22.013 78.52 21.104C69.0124 15.1208 56.0988 14.8353 46.2186 19.6343C44.9544 20.2577 44.5608 20.5816 43.5439 21.1946C40.9284 22.7548 37.9961 25.9031 37.6617 28.5708C37.6025 29.0061 37.5816 29.5773 37.8289 29.922C38.1145 30.326 38.9259 30.5036 39.5354 30.6325C40.4235 30.7509 41.8757 31.4718 42.5061 31.8653C43.4046 32.4365 43.8504 32.8823 44.3902 33.5126C45.1981 34.4216 46.0688 36.7097 45.7519 37.7371C45.3758 36.7097 45.6335 36.7898 44.9439 35.4559C44.6096 34.8047 44.0245 34.0246 43.3837 33.4604C41.9419 32.1788 39.0199 30.629 36.603 31.0121C36.0911 31.1096 35.8333 31.2002 35.3597 31.3987C33.3467 32.1997 32.2393 33.9062 34.1164 34.8151C36.2478 35.4176 37.8289 35.4072 39.3961 36.64C40.5906 37.5769 41.1235 39.0779 40.5105 40.2132C40.2946 39.4227 40.5314 38.4266 39.3543 37.2704C37.8254 35.7485 36.0945 35.8495 35.1299 35.5709C34.0328 35.5221 33.4234 35.5395 32.5423 35.8286C31.9014 36.0375 31.1213 36.5112 30.6651 36.9152C29.8049 37.6639 28.3944 39.6107 28.3143 40.7739C28.6696 40.4187 29.777 40.0043 30.6164 40.8436C30.3586 40.7635 30.1218 40.7147 29.9059 40.6938C30.2611 40.8331 30.5363 41.1466 30.6373 41.6899C31.0134 41.2371 31.0726 40.4152 31.2502 40.2585C31.992 42.8739 27.4019 45.1829 29.3069 43.0516C29.683 42.6476 28.1332 43.9187 27.5203 41.9963C27.2521 42.2331 27.1546 42.362 26.9666 42.6685C26.5904 43.2919 26.3362 43.9814 26.1377 44.6222C25.8417 45.5416 25.6536 46.5098 25.3367 47.3979C24.8909 46.973 25.5526 43.7551 25.6536 43.2605C26.9422 37.0963 29.6482 27.9543 32.3995 24.5414Z" fill="#1B1D2E"/>
<path fill-rule="evenodd" clip-rule="evenodd" d="M59.8634 18.3213C64.147 17.5621 59.6475 19.7631 57.5718 27.1358C56.2902 28.6961 54.333 30.0369 52.1528 30.6707C51.5921 30.8274 50.4464 31.1444 49.715 31.1339C49.5269 30.5105 49.9309 28.508 46.4657 28.1911C46.8 27.0349 48.6667 24.7468 49.5548 23.8169C52.0971 21.2049 55.4404 19.1293 59.8634 18.3213Z" fill="#1B1D2E"/>
<path fill-rule="evenodd" clip-rule="evenodd" d="M43.1328 17.2452L43.3592 17.1372C50.92 14.3128 57.3594 13.3655 65.8361 15.3019C65.1953 15.1243 61.0893 14.877 60.149 14.8387C47.709 14.3267 34.3914 21.1875 30.4525 29.1941C30.4142 29.2637 30.3829 29.3404 30.3446 29.41C30.1182 29.9533 30.0695 29.5876 30.1356 29.2812C31.1386 25.6662 38.5427 19.0805 43.1328 17.2452Z" fill="#1B1D2E"/>
<path fill-rule="evenodd" clip-rule="evenodd" d="M41.8965 37.0197L42.0463 37.0302C42.0463 37.1764 43.4567 39.1232 41.5831 40.8402C41.1582 41.2267 41.2766 41.0178 41.1094 41.5228C40.3885 43.6367 37.7626 46.1129 35.7984 47.7602C35.572 47.9587 35.2551 48.1363 35.0775 48.3313L35.0183 48.3209C36.8362 46.4437 38.09 45.587 39.6084 43.2467C39.9428 42.7347 40.2318 42.2297 40.4756 41.676C40.6044 41.38 40.6637 41.0352 40.89 40.8367C41.7189 40.0949 42.0045 39.6038 42.0741 38.4859C42.1055 37.9078 41.9174 37.4725 41.8965 37.0197Z" fill="#1B1D2E"/>
<path fill-rule="evenodd" clip-rule="evenodd" d="M39.0548 41.6375C39.9742 41.9614 37.8707 43.0375 37.3483 43.149L37.1324 43.041C37.8046 42.6475 38.919 41.9962 37.418 41.9753C34.6632 41.937 30.0627 44.6221 28.6418 46.2206C28.593 46.2903 28.4432 46.3774 28.5512 46.2311C30.2403 44.2146 35.4712 40.6415 39.0548 41.6375Z" fill="#1B1D2E"/>
<path d="M16.3793 73.8102V61.3459H18.03V67.5275L24.2187 61.3459H26.4545L21.2236 66.3957L26.6809 73.8102H24.5043L20.0674 67.4997L18.0266 69.4883V73.8067H16.3793V73.8102ZM34.0501 73.8102C33.8899 73.4933 33.7889 73.1206 33.7437 72.6958C33.176 73.1764 32.6327 73.5177 32.1068 73.7162C31.581 73.9147 31.0203 74.0122 30.4178 74.0122C29.4252 74.0122 28.6625 73.7684 28.1297 73.2843C27.5968 72.8002 27.3287 72.1803 27.3287 71.4281C27.3287 70.9858 27.4297 70.5818 27.6317 70.2161C27.8337 69.8504 28.0948 69.5579 28.4222 69.335C28.7496 69.1156 29.1153 68.9484 29.5227 68.8335C29.8222 68.7534 30.275 68.6768 30.8844 68.6037C32.1208 68.4574 33.0297 68.2798 33.6148 68.0778C33.6218 67.8688 33.6218 67.7365 33.6218 67.6773C33.6218 67.0539 33.4755 66.6151 33.1865 66.3609C32.7964 66.0161 32.2148 65.8419 31.4417 65.8419C30.7208 65.8419 30.1914 65.9673 29.8466 66.2215C29.5018 66.4723 29.2511 66.9216 29.0839 67.5624L27.5864 67.3569C27.7222 66.7161 27.9451 66.2007 28.2585 65.8036C28.5685 65.4101 29.0212 65.1071 29.6098 64.8947C30.1984 64.6822 30.881 64.5743 31.6576 64.5743C32.4272 64.5743 33.0541 64.6648 33.5382 64.8459C34.0188 65.027 34.374 65.2569 34.6004 65.532C34.8268 65.8071 34.987 66.1554 35.0775 66.5733C35.1298 66.8345 35.1541 67.3046 35.1541 67.9838V70.0246C35.1541 71.449 35.1855 72.3475 35.2516 72.7236C35.3178 73.0997 35.4467 73.4619 35.6382 73.8067H34.0501V73.8102ZM33.6148 69.2793C33.0576 69.5057 32.2253 69.6972 31.1143 69.8574C30.4839 69.948 30.0416 70.049 29.7804 70.1639C29.5192 70.2788 29.3173 70.4425 29.1779 70.6619C29.0352 70.8813 28.9655 71.1216 28.9655 71.3898C28.9655 71.7972 29.1187 72.1385 29.4287 72.4102C29.7387 72.6818 30.1914 72.8176 30.7834 72.8176C31.372 72.8176 31.8979 72.6888 32.3576 72.4311C32.8173 72.1734 33.1551 71.8216 33.371 71.3724C33.5347 71.0276 33.6183 70.5156 33.6183 69.8435V69.2793H33.6148ZM37.5502 73.8102V64.7797H38.9189V66.0474C39.201 65.6051 39.5806 65.2499 40.0507 64.9817C40.5209 64.7136 41.0572 64.5777 41.6562 64.5777C42.3249 64.5777 42.8751 64.717 43.3 64.9957C43.7284 65.2743 44.0314 65.6608 44.2055 66.1589C44.9194 65.1036 45.8493 64.5777 46.9951 64.5777C47.8901 64.5777 48.5797 64.825 49.0603 65.323C49.5409 65.8176 49.7847 66.5837 49.7847 67.6146V73.8137H48.2628V68.1265C48.2628 67.5136 48.214 67.0748 48.113 66.8031C48.0155 66.535 47.8344 66.3156 47.5732 66.1519C47.312 65.9882 47.0055 65.9046 46.6538 65.9046C46.02 65.9046 45.4906 66.1171 45.0727 66.5385C44.6548 66.9599 44.4423 67.6355 44.4423 68.5654V73.8102H42.9134V67.942C42.9134 67.2628 42.7881 66.7509 42.5408 66.4131C42.2901 66.0718 41.8826 65.9046 41.3149 65.9046C40.8831 65.9046 40.4861 66.0196 40.1204 66.2459C39.7547 66.4723 39.49 66.8031 39.3263 67.242C39.1627 67.6773 39.0791 68.3076 39.0791 69.1295V73.8137H37.5502V73.8102ZM57.9306 70.5052L59.4351 70.7002C59.2714 71.738 58.85 72.5495 58.1709 73.1381C57.4918 73.7231 56.6629 74.0192 55.6738 74.0192C54.4375 74.0192 53.4449 73.6152 52.6927 72.8072C51.9404 71.9992 51.5643 70.843 51.5643 69.335C51.5643 68.3599 51.7245 67.5066 52.0484 66.7753C52.3723 66.0439 52.8633 65.4972 53.525 65.1315C54.1867 64.7658 54.9041 64.5847 55.6808 64.5847C56.6629 64.5847 57.4639 64.832 58.0873 65.33C58.7107 65.8245 59.1112 66.5315 59.2853 67.4439L57.7982 67.6738C57.6554 67.0678 57.4047 66.6116 57.046 66.3051C56.6873 65.9987 56.2519 65.8454 55.74 65.8454C54.9703 65.8454 54.3435 66.1206 53.8594 66.6743C53.3788 67.228 53.135 68.1022 53.135 69.2967C53.135 70.5087 53.3683 71.3898 53.8315 71.94C54.2947 72.4903 54.9042 72.7654 55.6494 72.7654C56.2519 72.7654 56.7534 72.5808 57.1539 72.2117C57.5684 71.8355 57.8226 71.2679 57.9306 70.5052ZM60.7619 73.8102V61.3459H62.2908V65.8176C63.0048 64.9887 63.9068 64.5777 64.9933 64.5777C65.662 64.5777 66.2436 64.7101 66.7381 64.9748C67.2327 65.2394 67.5844 65.6016 67.7969 66.0683C68.0093 66.5315 68.1173 67.2071 68.1173 68.0917V73.8137H66.5884V68.0917C66.5884 67.3255 66.4212 66.7683 66.0904 66.4201C65.7595 66.0718 65.2894 65.8977 64.6834 65.8977C64.2306 65.8977 63.8023 66.0161 63.4053 66.2494C63.0048 66.4862 62.7192 66.8031 62.552 67.2071C62.3814 67.6111 62.2978 68.1649 62.2978 68.8753V73.8172H60.7619V73.8102ZM76.6428 73.8102C76.4826 73.4933 76.3816 73.1206 76.3363 72.6958C75.7686 73.1764 75.2253 73.5177 74.6994 73.7162C74.1736 73.9147 73.6129 74.0122 73.0104 74.0122C72.0178 74.0122 71.2551 73.7684 70.7223 73.2843C70.1894 72.8002 69.9213 72.1803 69.9213 71.4281C69.9213 70.9858 70.0223 70.5818 70.2243 70.2161C70.4262 69.8504 70.6874 69.5579 71.0148 69.335C71.3422 69.1156 71.7079 68.9484 72.1153 68.8335C72.4148 68.7534 72.8676 68.6768 73.477 68.6037C74.7134 68.4574 75.6223 68.2798 76.2074 68.0778C76.2144 67.8688 76.2144 67.7365 76.2144 67.6773C76.2144 67.0539 76.0681 66.6151 75.7791 66.3609C75.389 66.0161 74.8074 65.8419 74.0343 65.8419C73.3134 65.8419 72.784 65.9673 72.4392 66.2215C72.0944 66.4723 71.8437 66.9216 71.6765 67.5624L70.179 67.3569C70.3148 66.7161 70.5377 66.2007 70.8511 65.8036C71.1611 65.4101 71.6138 65.1071 72.2024 64.8947C72.791 64.6822 73.4736 64.5743 74.2502 64.5743C75.0198 64.5743 75.6467 64.6648 76.1308 64.8459C76.6114 65.027 76.9666 65.2569 77.193 65.532C77.4194 65.8071 77.5796 66.1554 77.6701 66.5733C77.7224 66.8345 77.7467 67.3046 77.7467 67.9838V70.0246C77.7467 71.449 77.7781 72.3475 77.8442 72.7236C77.9104 73.0997 78.0393 73.4619 78.2308 73.8067H76.6428V73.8102ZM76.2109 69.2793C75.6537 69.5057 74.8213 69.6972 73.7104 69.8574C73.08 69.948 72.6377 70.049 72.3765 70.1639C72.1153 70.2788 71.9133 70.4425 71.774 70.6619C71.6312 70.8813 71.5616 71.1216 71.5616 71.3898C71.5616 71.7972 71.7148 72.1385 72.0248 72.4102C72.3347 72.6818 72.7875 72.8176 73.3795 72.8176C73.9681 72.8176 74.494 72.6888 74.9537 72.4311C75.4134 72.1734 75.7512 71.8216 75.9671 71.3724C76.1308 71.0276 76.2144 70.5156 76.2144 69.8435V69.2793H76.2109ZM82.814 72.5007C82.9846 72.5007 83.2075 72.4798 83.4861 72.4415L83.7055 73.7928C83.2737 73.8833 82.8906 73.9286 82.5493 73.9286C81.9921 73.9286 81.5637 73.8416 81.2572 73.6639C80.9508 73.4898 80.7348 73.2565 80.6095 72.9709C80.4841 72.6853 80.4214 72.0828 80.4214 71.1634V65.9673H79.3V64.7763H80.4214V62.5404L81.9433 61.621V64.7763H83.4826V65.9673H81.9433V71.247C81.9433 71.6823 81.9712 71.9644 82.0234 72.0898C82.0756 72.2152 82.1662 72.3127 82.2881 72.3858C82.4135 72.4659 82.5876 72.5007 82.814 72.5007ZM84.9767 73.8102V61.3459H86.5056V68.4539L90.1275 64.7797H92.1091L88.6578 68.13L92.4574 73.8102H90.5698L87.5852 69.1922L86.5056 70.2301V73.8102H84.9767ZM99.8928 73.8102C99.7326 73.4933 99.6316 73.1206 99.5863 72.6958C99.0187 73.1764 98.4754 73.5177 97.9495 73.7162C97.4236 73.9147 96.8629 74.0122 96.2604 74.0122C95.2679 74.0122 94.5052 73.7684 93.9723 73.2843C93.4395 72.8002 93.1713 72.1803 93.1713 71.4281C93.1713 70.9858 93.2723 70.5818 93.4743 70.2161C93.6763 69.8504 93.9375 69.5579 94.2649 69.335C94.5922 69.1156 94.9579 68.9484 95.3654 68.8335C95.6649 68.7534 96.1176 68.6768 96.7271 68.6037C97.9634 68.4574 98.8724 68.2798 99.4575 68.0778C99.4644 67.8688 99.4644 67.7365 99.4644 67.6773C99.4644 67.0539 99.3182 66.6151 99.0291 66.3609C98.6391 66.0161 98.0574 65.8419 97.2843 65.8419C96.5634 65.8419 96.0341 65.9673 95.6893 66.2215C95.3445 66.4723 95.0937 66.9216 94.9266 67.5624L93.429 67.3569C93.5648 66.7161 93.7878 66.2007 94.1012 65.8036C94.4146 65.4101 94.8639 65.1071 95.4524 64.8947C96.041 64.6822 96.7236 64.5743 97.5002 64.5743C98.2699 64.5743 98.8968 64.6648 99.3809 64.8459C99.8615 65.027 100.217 65.2569 100.443 65.532C100.669 65.8071 100.83 66.1554 100.92 66.5733C100.972 66.8345 100.997 67.3046 100.997 67.9838V70.0246C100.997 71.449 101.028 72.3475 101.094 72.7236C101.16 73.0997 101.289 73.4619 101.481 73.8067H99.8928V73.8102ZM99.4575 69.2793C98.9002 69.5057 98.0679 69.6972 96.9569 69.8574C96.3266 69.948 95.8843 70.049 95.6231 70.1639C95.3619 70.2788 95.1599 70.4425 95.0206 70.6619C94.8778 70.8813 94.8082 71.1216 94.8082 71.3898C94.8082 71.7972 94.9614 72.1385 95.2714 72.4102C95.5813 72.6818 96.0341 72.8176 96.6261 72.8176C97.2147 72.8176 97.7405 72.6888 98.2002 72.4311C98.66 72.1734 98.9978 71.8216 99.2137 71.3724C99.3774 71.0276 99.461 70.5156 99.461 69.8435V69.2793H99.4575Z" fill="#1B1D2E"/>
<path d="M32.6711 86.6158L34.1861 86.379C34.2697 86.985 34.5065 87.4516 34.8965 87.772C35.2831 88.0959 35.8264 88.2561 36.5264 88.2561C37.2299 88.2561 37.7523 88.1133 38.0901 87.8278C38.4314 87.5422 38.5986 87.2044 38.5986 86.8213C38.5986 86.4765 38.4488 86.2049 38.1493 86.0063C37.9404 85.8705 37.418 85.6964 36.5856 85.4874C35.4642 85.2053 34.6841 84.9581 34.2523 84.7526C33.8169 84.5471 33.4896 84.2581 33.2667 83.8924C33.0438 83.5267 32.9323 83.1227 32.9323 82.6804C32.9323 82.2764 33.0229 81.9038 33.2075 81.5625C33.392 81.2212 33.6428 80.9356 33.9597 80.7093C34.1965 80.5351 34.5239 80.3854 34.9349 80.2635C35.3458 80.1416 35.7881 80.0824 36.2582 80.0824C36.9652 80.0824 37.5886 80.1834 38.1249 80.3889C38.6613 80.5943 39.0548 80.8695 39.3125 81.2177C39.5667 81.566 39.7444 82.0327 39.8384 82.6177L38.3409 82.8232C38.2712 82.36 38.0762 81.9943 37.7488 81.7332C37.4214 81.472 36.9617 81.3431 36.3662 81.3431C35.6627 81.3431 35.1612 81.458 34.8617 81.6914C34.5622 81.9247 34.4125 82.1963 34.4125 82.5063C34.4125 82.7048 34.4751 82.8824 34.6005 83.0426C34.7259 83.2063 34.9209 83.3421 35.1856 83.4501C35.3388 83.5058 35.7881 83.6382 36.5369 83.8402C37.62 84.1292 38.3757 84.366 38.8041 84.5506C39.2324 84.7352 39.5668 85.0033 39.8105 85.3551C40.0543 85.7068 40.1762 86.1422 40.1762 86.6646C40.1762 87.173 40.0265 87.6536 39.7304 88.1064C39.4344 88.5556 39.0026 88.9074 38.4419 89.1512C37.8812 89.3984 37.2473 89.5203 36.5369 89.5203C35.3632 89.5203 34.4682 89.2765 33.8552 88.789C33.2318 88.2944 32.8418 87.5735 32.6711 86.6158ZM48.1898 86.4034L49.7709 86.5984C49.5201 87.5213 49.0604 88.2387 48.3848 88.7507C47.7091 89.2591 46.8489 89.5168 45.8007 89.5168C44.4807 89.5168 43.4325 89.1094 42.6593 88.2979C41.8862 87.483 41.4996 86.3442 41.4996 84.8745C41.4996 83.3561 41.8897 82.1755 42.6733 81.3361C43.4569 80.4968 44.4703 80.0789 45.7171 80.0789C46.9256 80.0789 47.9111 80.4899 48.6773 81.3118C49.4435 82.1337 49.8266 83.2899 49.8266 84.7805C49.8266 84.871 49.8231 85.0068 49.8196 85.1879H43.0842C43.1399 86.1805 43.422 86.9397 43.927 87.4656C44.432 87.9914 45.0623 88.2561 45.8146 88.2561C46.3753 88.2561 46.8559 88.1098 47.2529 87.8138C47.643 87.5178 47.9564 87.0477 48.1898 86.4034ZM43.1643 83.9272H48.2072C48.1375 83.168 47.946 82.5968 47.629 82.2172C47.1415 81.6287 46.5111 81.3327 45.7345 81.3327C45.031 81.3327 44.439 81.5695 43.9618 82.0396C43.4777 82.5098 43.2131 83.1401 43.1643 83.9272ZM57.8889 89.3114C57.7287 88.9944 57.6277 88.6218 57.5824 88.1969C57.0147 88.6775 56.4714 89.0188 55.9456 89.2173C55.4197 89.4158 54.859 89.5134 54.2565 89.5134C53.2639 89.5134 52.5012 89.2696 51.9684 88.7855C51.4356 88.3014 51.1674 87.6815 51.1674 86.9292C51.1674 86.4869 51.2684 86.083 51.4704 85.7173C51.6724 85.3516 51.9336 85.0591 52.261 84.8362C52.5883 84.6168 52.954 84.4496 53.3615 84.3347C53.661 84.2546 54.1137 84.178 54.7232 84.1048C55.9595 83.9586 56.8685 83.7809 57.4535 83.579C57.4605 83.37 57.4605 83.2376 57.4605 83.1784C57.4605 82.5551 57.3142 82.1162 57.0252 81.862C56.6351 81.5172 56.0535 81.3431 55.2804 81.3431C54.5595 81.3431 54.0301 81.4685 53.6853 81.7227C53.3406 81.9735 53.0898 82.4227 52.9226 83.0635L51.4251 82.858C51.5609 82.2172 51.7838 81.7018 52.0973 81.3048C52.4072 80.9113 52.86 80.6083 53.4485 80.3958C54.0371 80.1834 54.7197 80.0754 55.4963 80.0754C56.266 80.0754 56.8929 80.166 57.3769 80.3471C57.8575 80.5282 58.2128 80.758 58.4391 81.0331C58.6655 81.3083 58.8257 81.6565 58.9163 82.0745C58.9685 82.3357 58.9929 82.8058 58.9929 83.4849V85.5257C58.9929 86.9501 59.0242 87.8487 59.0904 88.2248C59.1566 88.6009 59.2854 88.9631 59.477 89.3079H57.8889V89.3114ZM57.4535 84.777C56.8963 85.0034 56.064 85.1949 54.953 85.3551C54.3227 85.4456 53.8804 85.5466 53.6192 85.6616C53.358 85.7765 53.156 85.9402 53.0167 86.1596C52.8739 86.379 52.8042 86.6193 52.8042 86.8875C52.8042 87.2949 52.9575 87.6362 53.2674 87.9079C53.5774 88.1795 54.0301 88.3153 54.6222 88.3153C55.2107 88.3153 55.7366 88.1865 56.1963 87.9288C56.656 87.671 56.9938 87.3193 57.2098 86.87C57.3735 86.5253 57.457 86.0133 57.457 85.3412V84.777H57.4535ZM61.7372 89.3114V81.472H60.3859V80.2809H61.7372V79.3197C61.7372 78.7137 61.7894 78.261 61.8974 77.9684C62.0437 77.5714 62.3049 77.251 62.674 77.0037C63.0467 76.7565 63.5656 76.6346 64.2342 76.6346C64.6661 76.6346 65.1397 76.6868 65.6621 76.7878L65.4323 78.1217C65.1153 78.0659 64.8158 78.0381 64.5303 78.0381C64.0671 78.0381 63.7362 78.1356 63.5447 78.3341C63.3531 78.5326 63.2556 78.9053 63.2556 79.4485V80.2809H65.0144V81.472H63.2556V89.3114H61.7372ZM65.6586 84.7944C65.6586 83.1227 66.1218 81.8829 67.0517 81.0784C67.8283 80.4097 68.7756 80.0754 69.89 80.0754C71.1299 80.0754 72.1468 80.4829 72.9339 81.2943C73.7209 82.1093 74.1145 83.2307 74.1145 84.6655C74.1145 85.8287 73.9403 86.7412 73.5921 87.4064C73.2438 88.0715 72.7353 88.5905 72.0702 88.9596C71.405 89.3288 70.6771 89.5134 69.89 89.5134C68.6258 89.5134 67.6054 89.1094 66.8253 88.2979C66.0487 87.4865 65.6586 86.3198 65.6586 84.7944ZM67.2328 84.7944C67.2328 85.9506 67.4835 86.8178 67.9885 87.3924C68.4935 87.9671 69.1273 88.2561 69.8935 88.2561C70.6527 88.2561 71.2866 87.9671 71.7881 87.389C72.293 86.8108 72.5438 85.9297 72.5438 84.7456C72.5438 83.6277 72.2896 82.7814 71.7811 82.2068C71.2726 81.6322 70.6423 81.3431 69.89 81.3431C69.1239 81.3431 68.49 81.6287 67.985 82.2033C67.487 82.7745 67.2328 83.6382 67.2328 84.7944ZM75.3438 84.7944C75.3438 83.1227 75.807 81.8829 76.7369 81.0784C77.5135 80.4097 78.4608 80.0754 79.5752 80.0754C80.8151 80.0754 81.832 80.4829 82.6191 81.2943C83.4061 82.1093 83.7997 83.2307 83.7997 84.6655C83.7997 85.8287 83.6255 86.7412 83.2773 87.4064C82.929 88.0715 82.4206 88.5905 81.7554 88.9596C81.0902 89.3288 80.3623 89.5134 79.5752 89.5134C78.311 89.5134 77.2906 89.1094 76.5105 88.2979C75.7339 87.4865 75.3438 86.3198 75.3438 84.7944ZM76.9145 84.7944C76.9145 85.9506 77.1652 86.8178 77.6702 87.3924C78.1752 87.9671 78.8091 88.2561 79.5752 88.2561C80.3344 88.2561 80.9683 87.9671 81.4698 87.389C81.9748 86.8108 82.2255 85.9297 82.2255 84.7456C82.2255 83.6277 81.9713 82.7814 81.4628 82.2068C80.9544 81.6322 80.324 81.3431 79.5718 81.3431C78.8056 81.3431 78.1717 81.6287 77.6668 82.2033C77.1687 82.7745 76.9145 83.6382 76.9145 84.7944ZM91.4545 89.3114V88.1725C90.8833 89.0676 90.0405 89.5168 88.9296 89.5168C88.2087 89.5168 87.547 89.3183 86.9445 88.9213C86.342 88.5243 85.8718 87.9705 85.541 87.2601C85.2101 86.5496 85.043 85.7312 85.043 84.8083C85.043 83.9063 85.1927 83.0879 85.4922 82.3565C85.7917 81.6217 86.2445 81.061 86.8435 80.6675C87.446 80.2774 88.1146 80.0824 88.8599 80.0824C89.4032 80.0824 89.8873 80.1973 90.3157 80.4272C90.7405 80.657 91.0853 80.9565 91.3535 81.3257V76.854H92.8754V89.3183H91.4545V89.3114ZM86.6136 84.8048C86.6136 85.9611 86.8574 86.8248 87.345 87.3994C87.8326 87.9706 88.4072 88.2596 89.0724 88.2596C89.741 88.2596 90.3087 87.9845 90.7789 87.4377C91.2455 86.8909 91.4789 86.0551 91.4789 84.9337C91.4789 83.6974 91.2421 82.7919 90.7649 82.2138C90.2878 81.6356 89.7027 81.3466 89.0062 81.3466C88.3271 81.3466 87.7559 81.6252 87.2997 82.1789C86.8435 82.7327 86.6136 83.6068 86.6136 84.8048Z" fill="#1B1D2E"/>
<path fill-rule="evenodd" clip-rule="evenodd" d="M12.5971 70.0315L13.4573 73.2286L16.2399 74.2072L13.4573 75.1823L12.5971 78.3829L11.7473 75.1823L8.96472 74.2072L11.7473 73.2286L12.5971 70.0315Z" fill="#1B1D2E"/>
<path d="M12.5971 70.0315L13.4573 73.2286L16.2399 74.2072L13.4573 75.1823L12.5971 78.3829L11.7473 75.1823L8.96472 74.2072L11.7473 73.2286L12.5971 70.0315Z" fill="#1B1D2E"/>
<path fill-rule="evenodd" clip-rule="evenodd" d="M101.199 11.9028L102.265 15.8521L105.709 17.078L102.265 18.2795L101.199 22.2393L100.144 18.2795L96.7063 17.078L100.144 15.8521L101.199 11.9028Z" fill="#1B1D2E"/>
<path d="M101.199 11.9028L102.265 15.8521L105.709 17.078L102.265 18.2795L101.199 22.2393L100.144 18.2795L96.7063 17.078L100.144 15.8521L101.199 11.9028Z" fill="#1B1D2E"/>
<path fill-rule="evenodd" clip-rule="evenodd" d="M61.4828 45.3709L62.047 47.4919L63.9137 48.1431L62.047 48.8048L61.4828 50.9362L60.9117 48.8048L59.0554 48.1431L60.9117 47.4919L61.4828 45.3709Z" fill="#1B1D2E"/>
<path d="M61.4828 45.3709L62.047 47.4919L63.9137 48.1431L62.047 48.8048L61.4828 50.9362L60.9117 48.8048L59.0554 48.1431L60.9117 47.4919L61.4828 45.3709Z" fill="#1B1D2E"/>
<path fill-rule="evenodd" clip-rule="evenodd" d="M16.6753 36.337L17.236 38.4579L19.1027 39.1127L17.236 39.7744L16.6753 41.9057L16.1007 39.7744L14.2479 39.1127L16.1007 38.4579L16.6753 36.337Z" fill="#1B1D2E"/>
<path d="M16.6753 36.337L17.236 38.4579L19.1027 39.1127L17.236 39.7744L16.6753 41.9057L16.1007 39.7744L14.2479 39.1127L16.1007 38.4579L16.6753 36.337Z" fill="#1B1D2E"/>
<path fill-rule="evenodd" clip-rule="evenodd" d="M107.172 40.248L107.736 42.3689L109.599 43.0202L107.736 43.6819L107.172 45.8132L106.6 43.6819L104.744 43.0202L106.6 42.3689L107.172 40.248Z" fill="#1B1D2E"/>
<path d="M107.172 40.248L107.736 42.3689L109.599 43.0202L107.736 43.6819L107.172 45.8132L106.6 43.6819L104.744 43.0202L106.6 42.3689L107.172 40.248Z" fill="#1B1D2E"/>
<path fill-rule="evenodd" clip-rule="evenodd" d="M74.1596 6.20874L74.7238 8.32967L76.587 8.98092L74.7238 9.64262L74.1596 11.774L73.5849 9.64262L71.7322 8.98092L73.5849 8.32967L74.1596 6.20874Z" fill="#1B1D2E"/>
<path d="M74.1596 6.20874L74.7238 8.32967L76.587 8.98092L74.7238 9.64262L74.1596 11.774L73.5849 9.64262L71.7322 8.98092L73.5849 8.32967L74.1596 6.20874Z" fill="#1B1D2E"/>
<path fill-rule="evenodd" clip-rule="evenodd" d="M28.3422 89.381L28.9064 91.5019L30.7731 92.1532L28.9064 92.8149L28.3422 94.9462L27.771 92.8149L25.9148 92.1532L27.771 91.5019L28.3422 89.381Z" fill="#1B1D2E"/>
<path d="M28.3422 89.381L28.9064 91.5019L30.7731 92.1532L28.9064 92.8149L28.3422 94.9462L27.771 92.8149L25.9148 92.1532L27.771 91.5019L28.3422 89.381Z" fill="#1B1D2E"/>
<path fill-rule="evenodd" clip-rule="evenodd" d="M99.1545 77.8396L100.015 81.0366L102.797 82.0152L100.015 82.9939L99.1545 86.1909L98.3047 82.9939L95.5221 82.0152L98.3047 81.0366L99.1545 77.8396Z" fill="#1B1D2E"/>
<path d="M99.1545 77.8396L100.015 81.0366L102.797 82.0152L100.015 82.9939L99.1545 86.1909L98.3047 82.9939L95.5221 82.0152L98.3047 81.0366L99.1545 77.8396Z" fill="#1B1D2E"/>
</svg>
